<svg id="S3.F1.pic1" class="ltx_picture" height="229.7" overflow="visible" version="1.1" viewbox="0 0 287.96 229.7" width="287.96"><g style="--ltx-stroke-color:#000000;--ltx-fill-color:#000000;" fill="#000000" stroke="#000000" transform="translate(0,229.7) matrix(1 0 0 -1 0 0) translate(-7.6,0) translate(0,1.54)"><g stroke-width="0.4pt"><g style="--ltx-stroke-color:#666666;--ltx-fill-color:#666666;" fill="#666666" stroke="#666666" transform="matrix(1.0 0.0 0.0 1.0 98.63 218.74)"><foreignobject style="--ltx-fo-width:9.82em;--ltx-fo-height:0.46em;--ltx-fo-depth:0.13em;font-size:7.58pt;" height="6.15" overflow="visible" transform="matrix(1 0 0 -1 0 4.8)" width="103.07"><span class="ltx_foreignobject_container"><span class="ltx_foreignobject_content"><span id="S3.F1.pic1.1" class="ltx_text ltx_font_bold" style="font-size:50%;--ltx-fg-color:#666666;">Input Token Sequence</span></span></span></foreignobject></g><g style="--ltx-stroke-color:#999999;--ltx-fill-color:#FCFCFC;" fill="#FCFCFC" stroke="#999999"><path d="M 7.87 192.91 M 7.87 197.06 L 7.87 204.51 C 7.87 206.8 9.73 208.66 12.02 208.66 L 287.19 208.66 C 289.48 208.66 291.34 206.8 291.34 204.51 L 291.34 197.06 C 291.34 194.77 289.48 192.91 287.19 192.91 L 12.02 192.91 C 9.73 192.91 7.87 194.77 7.87 197.06 Z M 291.34 208.66" /></g><g style="--ltx-stroke-color:#EB974E;--ltx-fill-color:#F3BE90;" fill="#F3BE90" stroke="#EB974E" stroke-width="0.2pt"><path d="M 19.01 194.49 h 9.22 v 12.6 h -9.22 Z" /></g><g style="--ltx-stroke-color:#EB974E;--ltx-fill-color:#F3BE90;" fill="#F3BE90" stroke="#EB974E" stroke-width="0.2pt"><path d="M 28.85 194.49 h 9.22 v 12.6 h -9.22 Z" /></g><g style="--ltx-stroke-color:#EB974E;--ltx-fill-color:#F3BE90;" fill="#F3BE90" stroke="#EB974E" stroke-width="0.2pt"><path d="M 38.7 194.49 h 9.22 v 12.6 h -9.22 Z" /></g><g style="--ltx-stroke-color:#EB974E;--ltx-fill-color:#F3BE90;" fill="#F3BE90" stroke="#EB974E" stroke-width="0.2pt"><path d="M 48.54 194.49 h 9.22 v 12.6 h -9.22 Z" /></g><g style="--ltx-stroke-color:#999999;--ltx-fill-color:#999999;" fill="#999999" stroke="#999999" transform="matrix(1.0 0.0 0.0 1.0 17.25 185.52)"><foreignobject style="--ltx-fo-width:3.2em;--ltx-fo-height:0.7em;--ltx-fo-depth:0.2em;font-size:10pt;" height="12.45" overflow="visible" transform="matrix(1 0 0 -1 0 9.69)" width="44.24"><span class="ltx_foreignobject_container"><span class="ltx_foreignobject_content"><span id="S3.F1.pic1.2" class="ltx_text" style="--ltx-fg-color:#999999;">ref_txt</span></span></span></foreignobject></g><g style="--ltx-stroke-color:#45B39E;--ltx-fill-color:#8AD0C2;" fill="#8AD0C2" stroke="#45B39E" stroke-width="0.2pt"><path d="M 74.13 194.49 h 9.22 v 12.6 h -9.22 Z" /></g><g style="--ltx-stroke-color:#45B39E;--ltx-fill-color:#8AD0C2;" fill="#8AD0C2" stroke="#45B39E" stroke-width="0.2pt"><path d="M 83.97 194.49 h 9.22 v 12.6 h -9.22 Z" /></g><g style="--ltx-stroke-color:#45B39E;--ltx-fill-color:#8AD0C2;" fill="#8AD0C2" stroke="#45B39E" stroke-width="0.2pt"><path d="M 93.81 194.49 h 9.22 v 12.6 h -9.22 Z" /></g><g style="--ltx-stroke-color:#45B39E;--ltx-fill-color:#8AD0C2;" fill="#8AD0C2" stroke="#45B39E" stroke-width="0.2pt"><path d="M 103.66 194.49 h 9.22 v 12.6 h -9.22 Z" /></g><g style="--ltx-stroke-color:#45B39E;--ltx-fill-color:#8AD0C2;" fill="#8AD0C2" stroke="#45B39E" stroke-width="0.2pt"><path d="M 113.5 194.49 h 9.22 v 12.6 h -9.22 Z" /></g><g style="--ltx-stroke-color:#999999;--ltx-fill-color:#999999;" fill="#999999" stroke="#999999" transform="matrix(1.0 0.0 0.0 1.0 72.56 185.52)"><foreignobject style="--ltx-fo-width:4.28em;--ltx-fo-height:0.7em;--ltx-fo-depth:0.2em;font-size:10pt;" height="12.45" overflow="visible" transform="matrix(1 0 0 -1 0 9.69)" width="59.23"><span class="ltx_foreignobject_container"><span class="ltx_foreignobject_content"><span id="S3.F1.pic1.3" class="ltx_text" style="--ltx-fg-color:#999999;">ref_codec</span></span></span></foreignobject></g><g style="--ltx-stroke-color:#A569BE;--ltx-fill-color:#C7A1D6;" fill="#C7A1D6" stroke="#A569BE" stroke-width="0.2pt"><path d="M 133.18 194.49 h 9.22 v 12.6 h -9.22 Z" /></g><g style="--ltx-stroke-color:#A569BE;--ltx-fill-color:#C7A1D6;" fill="#C7A1D6" stroke="#A569BE" stroke-width="0.2pt"><path d="M 143.03 194.49 h 9.22 v 12.6 h -9.22 Z" /></g><g style="--ltx-stroke-color:#A569BE;--ltx-fill-color:#C7A1D6;" fill="#C7A1D6" stroke="#A569BE" stroke-width="0.2pt"><path d="M 152.87 194.49 h 9.22 v 12.6 h -9.22 Z" /></g><g style="--ltx-stroke-color:#A569BE;--ltx-fill-color:#C7A1D6;" fill="#C7A1D6" stroke="#A569BE" stroke-width="0.2pt"><path d="M 162.71 194.49 h 9.22 v 12.6 h -9.22 Z" /></g><g style="--ltx-stroke-color:#999999;--ltx-fill-color:#999999;" fill="#999999" stroke="#999999" transform="matrix(1.0 0.0 0.0 1.0 128.94 185.52)"><foreignobject style="--ltx-fo-width:3.56em;--ltx-fo-height:0.7em;--ltx-fo-depth:0.2em;font-size:10pt;" height="12.45" overflow="visible" transform="matrix(1 0 0 -1 0 9.69)" width="49.2"><span class="ltx_foreignobject_container"><span class="ltx_foreignobject_content"><span id="S3.F1.pic1.4" class="ltx_text" style="--ltx-fg-color:#999999;">gen_txt</span></span></span></foreignobject></g><g style="--ltx-stroke-color:#E6B0AA;--ltx-fill-color:#FDEBEC;" fill="#FDEBEC" stroke="#E6B0AA" stroke-width="0.3pt"><path d="M 188.3 194.49 h 9.22 v 12.6 h -9.22 Z" /></g><g style="--ltx-stroke-color:#E6B0AA;--ltx-fill-color:#FDEBEC;" fill="#FDEBEC" stroke="#E6B0AA" stroke-width="0.3pt"><path d="M 198.14 194.49 h 9.22 v 12.6 h -9.22 Z" /></g><g style="--ltx-stroke-color:#E6B0AA;--ltx-fill-color:#FDEBEC;" fill="#FDEBEC" stroke="#E6B0AA" stroke-width="0.3pt"><path d="M 207.99 194.49 h 9.22 v 12.6 h -9.22 Z" /></g><g style="--ltx-stroke-color:#E6B0AA;--ltx-fill-color:#FDEBEC;" fill="#FDEBEC" stroke="#E6B0AA" stroke-width="0.3pt"><path d="M 217.83 194.49 h 9.22 v 12.6 h -9.22 Z" /></g><g style="--ltx-stroke-color:#E6B0AA;--ltx-fill-color:#FDEBEC;" fill="#FDEBEC" stroke="#E6B0AA" stroke-width="0.3pt"><path d="M 227.67 194.49 h 9.22 v 12.6 h -9.22 Z" /></g><g style="--ltx-stroke-color:#E6B0AA;--ltx-fill-color:#FDEBEC;" fill="#FDEBEC" stroke="#E6B0AA" stroke-width="0.3pt"><path d="M 237.51 194.49 h 9.22 v 12.6 h -9.22 Z" /></g><g style="--ltx-stroke-color:#E6B0AA;--ltx-fill-color:#FDEBEC;" fill="#FDEBEC" stroke="#E6B0AA" stroke-width="0.3pt"><path d="M 247.36 194.49 h 9.22 v 12.6 h -9.22 Z" /></g><g style="--ltx-stroke-color:#E6B0AA;--ltx-fill-color:#FDEBEC;" fill="#FDEBEC" stroke="#E6B0AA" stroke-width="0.3pt"><path d="M 257.2 194.49 h 9.22 v 12.6 h -9.22 Z" /></g><g style="--ltx-stroke-color:#E6B0AA;--ltx-fill-color:#FDEBEC;" fill="#FDEBEC" stroke="#E6B0AA" stroke-width="0.3pt"><path d="M 267.04 194.49 h 9.22 v 12.6 h -9.22 Z" /></g><g style="--ltx-stroke-color:#C0392B;--ltx-fill-color:#C0392B;" fill="#C0392B" stroke="#C0392B" transform="matrix(1.0 0.0 0.0 1.0 215.35 184.89)"><foreignobject style="--ltx-fo-width:4.15em;--ltx-fo-height:0.84em;--ltx-fo-depth:0.25em;font-size:10pt;" height="15.1" overflow="visible" transform="matrix(1 0 0 -1 0 11.64)" width="57.48"><span class="ltx_foreignobject_container"><span class="ltx_foreignobject_content"><math id="S3.F1.pic1.m1" class="ltx_Math" alttext="[\text{MASK}]^{L}" display="inline" intent=":literal"><semantics><msup><mrow><mo style="--ltx-fg-color:#C0392B;" mathcolor="#C0392B" stretchy="false">[</mo><mtext style="--ltx-fg-color:#C0392B;" mathcolor="#C0392B">MASK</mtext><mo style="--ltx-fg-color:#C0392B;" mathcolor="#C0392B" stretchy="false">]</mo></mrow><mi style="--ltx-fg-color:#C0392B;" mathcolor="#C0392B">L</mi></msup><annotation encoding="application/x-tex">[\text{MASK}]^{L}</annotation></semantics></math></span></span></foreignobject></g><g style="--ltx-stroke-color:#CCCCCC;--ltx-fill-color:#CCCCCC;" fill="#CCCCCC" stroke="#CCCCCC" stroke-width="0.9pt"><path style="fill:none" d="M 149.61 185.04 L 149.61 167.77" /><g style="--ltx-fg-color:#CCCCCC;" color="#CCCCCC" stroke-dasharray="none" stroke-dashoffset="0.0pt" stroke-linejoin="miter" transform="matrix(0.0 -1.0 1.0 0.0 149.61 171.17)"><path d="M 8.09 0 L 2.01 2.26 L 3.71 0 L 2.01 -2.26 Z" /></g></g><g style="--ltx-stroke-color:#A9CCE3;--ltx-fill-color:#F9FCFE;" fill="#F9FCFE" stroke="#A9CCE3"><path d="M 11.81 51.18 M 11.81 59.48 L 11.81 153.12 C 11.81 157.7 15.53 161.42 20.11 161.42 L 286.97 161.42 C 291.56 161.42 295.28 157.7 295.28 153.12 L 295.28 59.48 C 295.28 54.9 291.56 51.18 286.97 51.18 L 20.11 51.18 C 15.53 51.18 11.81 54.9 11.81 59.48 Z M 295.28 161.42" /></g><g style="--ltx-stroke-color:#5499C7;--ltx-fill-color:#5499C7;" fill="#5499C7" stroke="#5499C7" transform="matrix(1.0 0.0 0.0 1.0 50.79 150.18)"><foreignobject style="--ltx-fo-width:16.47em;--ltx-fo-height:0.54em;--ltx-fo-depth:0em;font-size:9.06pt;" height="6.73" overflow="visible" transform="matrix(1 0 0 -1 0 6.73)" width="206.54"><span class="ltx_foreignobject_container"><span class="ltx_foreignobject_content"><span id="S3.F1.pic1.5" class="ltx_text ltx_font_bold" style="font-size:70%;--ltx-fg-color:#5499C7;">Block Discrete Diffusion Transformer</span></span></span></foreignobject></g><g style="--ltx-stroke-color:#69A6CE;--ltx-fill-color:#69A6CE;" fill="#69A6CE" stroke="#69A6CE" transform="matrix(1.0 0.0 0.0 1.0 109.6 140)"><foreignobject style="--ltx-fo-width:8.4em;--ltx-fo-height:0.46em;--ltx-fo-depth:0.13em;font-size:7.58pt;" height="6.15" overflow="visible" transform="matrix(1 0 0 -1 0 4.8)" width="88.16"><span class="ltx_foreignobject_container"><span class="ltx_foreignobject_content"><span id="S3.F1.pic1.6" class="ltx_text ltx_font_bold" style="font-size:50%;--ltx-fg-color:#69A6CE;">Iterative Denoising</span></span></span></foreignobject></g><g style="--ltx-stroke-color:#69A6CE;--ltx-fill-color:#EAF2F8;" fill="#EAF2F8" stroke="#69A6CE" stroke-width="0.6pt"><path d="M 77.72 128.94 L 48.26 128.94 C 45.97 128.94 44.11 127.08 44.11 124.79 L 44.11 111.43 C 44.11 109.14 45.97 107.28 48.26 107.28 L 77.72 107.28 C 80.01 107.28 81.87 109.14 81.87 111.43 L 81.87 124.79 C 81.87 127.08 80.01 128.94 77.72 128.94 Z M 44.11 107.28" /></g><g style="--ltx-stroke-color:#000000;--ltx-fill-color:#000000;" fill="#000000" stroke="#000000" stroke-width="0.6pt" transform="matrix(1.0 0.0 0.0 1.0 48.26 114.75)"><foreignobject style="--ltx-fo-width:2.35em;--ltx-fo-height:0.54em;--ltx-fo-depth:0em;font-size:9.06pt;" height="6.73" overflow="visible" transform="matrix(1 0 0 -1 0 6.73)" width="29.46"><span class="ltx_foreignobject_container"><span class="ltx_foreignobject_content"><span id="S3.F1.pic1.7" class="ltx_text ltx_font_bold" style="font-size:70%;">Blk 1</span></span></span></foreignobject></g><g style="--ltx-stroke-color:#D3746A;--ltx-fill-color:#F9EBEA;" fill="#F9EBEA" stroke="#D3746A" stroke-width="0.6pt"><path d="M 164.51 128.94 L 134.71 128.94 C 132.41 128.94 130.55 127.08 130.55 124.79 L 130.55 111.43 C 130.55 109.14 132.41 107.28 134.71 107.28 L 164.51 107.28 C 166.8 107.28 168.66 109.14 168.66 111.43 L 168.66 124.79 C 168.66 127.08 166.8 128.94 164.51 128.94 Z M 130.55 107.28" /></g><g style="--ltx-stroke-color:#000000;--ltx-fill-color:#000000;" fill="#000000" stroke="#000000" stroke-width="0.6pt" transform="matrix(1.0 0.0 0.0 1.0 134.71 114.75)"><foreignobject style="--ltx-fo-width:2.38em;--ltx-fo-height:0.54em;--ltx-fo-depth:0em;font-size:9.06pt;" height="6.73" overflow="visible" transform="matrix(1 0 0 -1 0 6.73)" width="29.8"><span class="ltx_foreignobject_container"><span class="ltx_foreignobject_content"><span id="S3.F1.pic1.8" class="ltx_text ltx_font_bold" style="font-size:70%;">Blk k</span></span></span></foreignobject></g><g style="--ltx-stroke-color:#69A6CE;--ltx-fill-color:#EAF2F8;" fill="#EAF2F8" stroke="#69A6CE" stroke-width="0.6pt"><path d="M 252.67 128.94 L 219.77 128.94 C 217.48 128.94 215.62 127.08 215.62 124.79 L 215.62 111.43 C 215.62 109.14 217.48 107.28 219.77 107.28 L 252.67 107.28 C 254.96 107.28 256.82 109.14 256.82 111.43 L 256.82 124.79 C 256.82 127.08 254.96 128.94 252.67 128.94 Z M 215.62 107.28" /></g><g style="--ltx-stroke-color:#000000;--ltx-fill-color:#000000;" fill="#000000" stroke="#000000" stroke-width="0.6pt" transform="matrix(1.0 0.0 0.0 1.0 219.77 114.75)"><foreignobject style="--ltx-fo-width:2.62em;--ltx-fo-height:0.54em;--ltx-fo-depth:0em;font-size:9.06pt;" height="6.73" overflow="visible" transform="matrix(1 0 0 -1 0 6.73)" width="32.89"><span class="ltx_foreignobject_container"><span class="ltx_foreignobject_content"><span id="S3.F1.pic1.9" class="ltx_text ltx_font_bold" style="font-size:70%;">Blk N</span></span></span></foreignobject></g><g style="--ltx-stroke-color:#CCCCCC;--ltx-fill-color:#CCCCCC;--ltx-fg-color:#CCCCCC;" color="#CCCCCC" fill="#CCCCCC" stroke="#CCCCCC"><path style="fill:none" d="M 82.29 118.11 L 125.76 118.11" /></g><g style="--ltx-stroke-color:#CCCCCC;--ltx-fill-color:#CCCCCC;--ltx-fg-color:#CCCCCC;" color="#CCCCCC" fill="#CCCCCC" stroke="#CCCCCC" stroke-dasharray="none" stroke-dashoffset="0.0pt" stroke-linejoin="miter" transform="matrix(1.0 0.0 0.0 1.0 123.5 118.11)"><path d="M 5.9 0 L 0.89 1.87 L 2.4 0 L 0.89 -1.87 Z" /></g><g style="--ltx-stroke-color:#CCCCCC;--ltx-fill-color:#CCCCCC;--ltx-fg-color:#CCCCCC;" color="#CCCCCC" fill="#CCCCCC" stroke="#CCCCCC"><path style="fill:none" d="M 169.07 118.11 L 210.83 118.11" /></g><g style="--ltx-stroke-color:#CCCCCC;--ltx-fill-color:#CCCCCC;--ltx-fg-color:#CCCCCC;" color="#CCCCCC" fill="#CCCCCC" stroke="#CCCCCC" stroke-dasharray="none" stroke-dashoffset="0.0pt" stroke-linejoin="miter" transform="matrix(1.0 0.0 0.0 1.0 208.57 118.11)"><path d="M 5.9 0 L 0.89 1.87 L 2.4 0 L 0.89 -1.87 Z" /></g><g style="--ltx-stroke-color:#BFBFBF;--ltx-fill-color:#BFBFBF;--ltx-fg-color:#BFBFBF;" color="#BFBFBF" fill="#BFBFBF" stroke="#BFBFBF"><path style="fill:none" d="M 149.61 107.28 L 149.61 100.84" /></g><g style="--ltx-stroke-color:#BFBFBF;--ltx-fill-color:#BFBFBF;--ltx-fg-color:#BFBFBF;" color="#BFBFBF" fill="#BFBFBF" stroke="#BFBFBF" stroke-dasharray="none" stroke-dashoffset="0.0pt" stroke-linejoin="miter" transform="matrix(0.0 -1.0 1.0 0.0 149.61 103.1)"><path d="M 5.9 0 L 0.89 1.87 L 2.4 0 L 0.89 -1.87 Z" /></g><g style="--ltx-stroke-color:#E6B0AA;--ltx-fill-color:#FDEBEC;" fill="#FDEBEC" stroke="#E6B0AA" stroke-width="0.3pt"><path d="M 116.06 84.25 h 9.22 v 12.6 h -9.22 Z" /></g><g style="--ltx-stroke-color:#E6B0AA;--ltx-fill-color:#FDEBEC;" fill="#FDEBEC" stroke="#E6B0AA" stroke-width="0.3pt"><path d="M 125.9 84.25 h 9.22 v 12.6 h -9.22 Z" /></g><g style="--ltx-stroke-color:#E6B0AA;--ltx-fill-color:#FDEBEC;" fill="#FDEBEC" stroke="#E6B0AA" stroke-width="0.3pt"><path d="M 135.74 84.25 h 9.22 v 12.6 h -9.22 Z" /></g><g style="--ltx-stroke-color:#E6B0AA;--ltx-fill-color:#FDEBEC;" fill="#FDEBEC" stroke="#E6B0AA" stroke-width="0.3pt"><path d="M 145.59 84.25 h 9.22 v 12.6 h -9.22 Z" /></g><g style="--ltx-stroke-color:#E6B0AA;--ltx-fill-color:#FDEBEC;" fill="#FDEBEC" stroke="#E6B0AA" stroke-width="0.3pt"><path d="M 155.43 84.25 h 9.22 v 12.6 h -9.22 Z" /></g><g style="--ltx-stroke-color:#E6B0AA;--ltx-fill-color:#FDEBEC;" fill="#FDEBEC" stroke="#E6B0AA" stroke-width="0.3pt"><path d="M 165.27 84.25 h 9.22 v 12.6 h -9.22 Z" /></g><g style="--ltx-stroke-color:#E6B0AA;--ltx-fill-color:#FDEBEC;" fill="#FDEBEC" stroke="#E6B0AA" stroke-width="0.3pt"><path d="M 175.11 84.25 h 9.22 v 12.6 h -9.22 Z" /></g><g style="--ltx-fg-color:#FF8080;" color="#FF8080" stroke-dasharray="0.6pt,1.0pt" stroke-dashoffset="0.0pt" stroke-width="0.6pt"><g style="--ltx-stroke-color:#FF8080;--ltx-fill-color:#FF8080;" fill="#FF8080" stroke="#FF8080"><path style="fill:none" d="M 149.61 82.68 L 149.61 76.04" /></g><g style="--ltx-stroke-color:#FF8080;--ltx-fill-color:#FF8080;" fill="#FF8080" stroke="#FF8080" stroke-dasharray="none" stroke-dashoffset="0.0pt" stroke-linejoin="miter" transform="matrix(0.0 -1.0 1.0 0.0 149.61 78.75)"><path d="M 6.78 0 L 1.34 2.03 L 2.92 0 L 1.34 -2.03 Z" /></g></g><g style="--ltx-stroke-color:#45B39E;--ltx-fill-color:#8AD0C2;" fill="#8AD0C2" stroke="#45B39E" stroke-width="0.2pt"><path d="M 116.06 56.69 h 9.22 v 12.6 h -9.22 Z" /></g><g style="--ltx-stroke-color:#45B39E;--ltx-fill-color:#8AD0C2;" fill="#8AD0C2" stroke="#45B39E" stroke-width="0.2pt"><path d="M 125.9 56.69 h 9.22 v 12.6 h -9.22 Z" /></g><g style="--ltx-stroke-color:#45B39E;--ltx-fill-color:#8AD0C2;" fill="#8AD0C2" stroke="#45B39E" stroke-width="0.2pt"><path d="M 135.74 56.69 h 9.22 v 12.6 h -9.22 Z" /></g><g style="--ltx-stroke-color:#45B39E;--ltx-fill-color:#8AD0C2;" fill="#8AD0C2" stroke="#45B39E" stroke-width="0.2pt"><path d="M 145.59 56.69 h 9.22 v 12.6 h -9.22 Z" /></g><g style="--ltx-stroke-color:#45B39E;--ltx-fill-color:#8AD0C2;" fill="#8AD0C2" stroke="#45B39E" stroke-width="0.2pt"><path d="M 155.43 56.69 h 9.22 v 12.6 h -9.22 Z" /></g><g style="--ltx-stroke-color:#45B39E;--ltx-fill-color:#8AD0C2;" fill="#8AD0C2" stroke="#45B39E" stroke-width="0.2pt"><path d="M 165.27 56.69 h 9.22 v 12.6 h -9.22 Z" /></g><g style="--ltx-stroke-color:#45B39E;--ltx-fill-color:#8AD0C2;" fill="#8AD0C2" stroke="#45B39E" stroke-width="0.2pt"><path d="M 175.11 56.69 h 9.22 v 12.6 h -9.22 Z" /></g><g style="--ltx-stroke-color:#5CBDAA;--ltx-fill-color:#E8F6F3;" fill="#E8F6F3" stroke="#5CBDAA" stroke-width="0.6pt"><path d="M 201.26 34.45 L 97.95 34.45 C 95.66 34.45 93.8 32.59 93.8 30.3 L 93.8 16.95 C 93.8 14.65 95.66 12.8 97.95 12.8 L 201.26 12.8 C 203.55 12.8 205.41 14.65 205.41 16.95 L 205.41 30.3 C 205.41 32.59 203.55 34.45 201.26 34.45 Z M 93.8 12.8" /></g><g style="--ltx-stroke-color:#000000;--ltx-fill-color:#000000;" fill="#000000" stroke="#000000" stroke-width="0.6pt" transform="matrix(1.0 0.0 0.0 1.0 97.95 20.26)"><foreignobject style="--ltx-fo-width:8.18em;--ltx-fo-height:0.54em;--ltx-fo-depth:0em;font-size:9.06pt;" height="6.73" overflow="visible" transform="matrix(1 0 0 -1 0 6.73)" width="102.62"><span class="ltx_foreignobject_container"><span class="ltx_foreignobject_content"><span id="S3.F1.pic1.10" class="ltx_text ltx_font_bold" style="font-size:70%;">X-Codec2 Decoder</span></span></span></foreignobject></g><g style="--ltx-stroke-color:#5CBDAA;--ltx-fill-color:#5CBDAA;--ltx-fg-color:#5CBDAA;" color="#5CBDAA" fill="#5CBDAA" stroke="#5CBDAA" stroke-width="0.6pt"><path style="fill:none" d="M 242.13 23.62 C 242.13 23.62 245.74 31.88 248.03 31.5 C 250.33 31.11 252.03 21.04 253.94 21.65 C 255.85 22.27 256.73 34.26 257.87 34.65 C 259.02 35.03 259.08 27.75 259.84 23.62 C 260.61 19.49 260.66 13 261.81 13.39 C 262.96 13.77 263.84 24.75 265.75 25.59 C 267.66 26.43 269.36 18.1 271.65 17.72 C 273.95 17.33 277.56 23.62 277.56 23.62" /></g><g style="--ltx-stroke-color:#16A085;--ltx-fill-color:#16A085;" fill="#16A085" stroke="#16A085" transform="matrix(1.0 0.0 0.0 1.0 229.46 3.07)"><foreignobject style="--ltx-fo-width:4.53em;--ltx-fo-height:0.69em;--ltx-fo-depth:0em;font-size:10pt;" height="9.61" overflow="visible" transform="matrix(1 0 0 -1 0 9.61)" width="62.69"><span class="ltx_foreignobject_container"><span class="ltx_foreignobject_content"><span id="S3.F1.pic1.11" class="ltx_text" style="--ltx-fg-color:#16A085;">Waveform</span></span></span></foreignobject></g></g><g stroke-width="0.9pt"><g style="--ltx-stroke-color:#CCCCCC;--ltx-fill-color:#CCCCCC;--ltx-fg-color:#CCCCCC;" color="#CCCCCC" fill="#CCCCCC" stroke="#CCCCCC"><path style="fill:none" d="M 149.61 56.89 L 149.61 41.22" /></g><g style="--ltx-stroke-color:#CCCCCC;--ltx-fill-color:#CCCCCC;--ltx-fg-color:#CCCCCC;" color="#CCCCCC" fill="#CCCCCC" stroke="#CCCCCC" stroke-dasharray="none" stroke-dashoffset="0.0pt" stroke-linejoin="miter" transform="matrix(0.0 -1.0 1.0 0.0 149.61 44.62)"><path d="M 8.09 0 L 2.01 2.26 L 3.71 0 L 2.01 -2.26 Z" /></g></g><g stroke-width="0.9pt"><g style="--ltx-stroke-color:#CCCCCC;--ltx-fill-color:#CCCCCC;--ltx-fg-color:#CCCCCC;" color="#CCCCCC" fill="#CCCCCC" stroke="#CCCCCC"><path style="fill:none" d="M 205.83 23.62 L 225.65 23.62" /></g><g style="--ltx-stroke-color:#CCCCCC;--ltx-fill-color:#CCCCCC;--ltx-fg-color:#CCCCCC;" color="#CCCCCC" fill="#CCCCCC" stroke="#CCCCCC" stroke-dasharray="none" stroke-dashoffset="0.0pt" stroke-linejoin="miter" transform="matrix(1.0 0.0 0.0 1.0 222.25 23.62)"><path d="M 8.09 0 L 2.01 2.26 L 3.71 0 L 2.01 -2.26 Z" /></g></g></g></svg>