<svg id="A5.F41.pic1" class="ltx_picture ltx_centering" height="335.36" overflow="visible" version="1.1" viewbox="0 0 477.38 335.36" width="477.38"><g style="--ltx-stroke-color:#000000;--ltx-fill-color:#000000;" fill="#000000" stroke="#000000" stroke-width="0.4pt" transform="translate(0,335.36) matrix(1 0 0 -1 0 0)"><g style="--ltx-fill-color:#808080;" fill="#808080" fill-opacity="1.0"><path style="stroke:none" d="M 0 5.18 L 0 316.7 C 0 319.56 2.32 321.88 5.18 321.88 L 472.19 321.88 C 475.06 321.88 477.38 319.56 477.38 316.7 L 477.38 5.18 C 477.38 2.32 475.06 0 472.19 0 L 5.18 0 C 2.32 0 0 2.32 0 5.18 Z" /></g><g style="--ltx-fill-color:#FFFFFF;" fill="#FFFFFF" fill-opacity="1.0"><path style="stroke:none" d="M 1.25 5.18 L 1.25 316.7 C 1.25 318.87 3.01 320.63 5.18 320.63 L 472.19 320.63 C 474.37 320.63 476.13 318.87 476.13 316.7 L 476.13 5.18 C 476.13 3.01 474.37 1.25 472.19 1.25 L 5.18 1.25 C 3.01 1.25 1.25 3.01 1.25 5.18 Z" /></g><g style="--ltx-stroke-color:#808080;" fill-opacity="1.0" stroke="#808080" stroke-dasharray="2.84528pt,2.84528pt" stroke-dashoffset="0.0pt"><path style="fill:none" d="M 1.25 250.26 L 476.13 250.26" /></g><g transform="matrix(1.0 0.0 0.0 1.0 173.28 310.07)"><g style="--ltx-stroke-color:#000000;--ltx-fill-color:#000000;" class="ltx_nestedsvg" fill="#000000" stroke="#000000" stroke-width="0.4pt" transform="matrix(1 0 0 1 0 0)"><g style="--ltx-fill-color:#808080;" fill="#808080" fill-opacity="1.0"><path style="stroke:none" d="M 0 4.53 L 0 20.76 C 0 23.26 2.03 25.29 4.53 25.29 L 126.29 25.29 C 128.79 25.29 130.82 23.26 130.82 20.76 L 130.82 4.53 C 130.82 2.03 128.79 0 126.29 0 L 4.53 0 C 2.03 0 0 2.03 0 4.53 Z" /></g><g style="--ltx-fill-color:#808080;" fill="#808080" fill-opacity="1.0"><path style="stroke:none" d="M 1.57 4.53 L 1.57 20.76 C 1.57 22.39 2.9 23.72 4.53 23.72 L 126.29 23.72 C 127.92 23.72 129.24 22.39 129.24 20.76 L 129.24 4.53 C 129.24 2.9 127.92 1.57 126.29 1.57 L 4.53 1.57 C 2.9 1.57 1.57 2.9 1.57 4.53 Z" /></g><g fill-opacity="1.0" transform="matrix(1.0 0.0 0.0 1.0 13.39 9.19)"><foreignobject style="--ltx-fo-width:7.52em;--ltx-fo-height:0.69em;--ltx-fo-depth:0.19em;font-size:10pt;" height="12.3" overflow="visible" transform="matrix(1 0 0 -1 0 9.61)" width="104.05"><span class="ltx_foreignobject_container"><span class="ltx_foreignobject_content"><span id="A5.F41.pic1.1" class="ltx_text" style="--ltx-fg-color:#FFFFFF;">Sound Reasoning</span></span></span></foreignobject></g></g></g><g fill-opacity="1.0" transform="matrix(1.0 0.0 0.0 1.0 20.93 280.02)"><foreignobject style="--ltx-fo-width:31.48em;--ltx-fo-height:1.8em;--ltx-fo-depth:1.3em;font-size:10pt;" height="42.82" overflow="visible" transform="matrix(1 0 0 -1 0 24.87)" width="435.59"><span class="ltx_foreignobject_container"><span class="ltx_foreignobject_content">
<span id="A5.F41.pic1.2" class="ltx_inline-block ltx_minipage" style="width:31.48em;">
<span id="A5.F41.pic1.2.1" class="ltx_p ltx_minipage ltx_align_middle" style="width:314.8pt;"><span id="A5.F41.pic1.2.1.1" class="ltx_text ltx_font_bold" style="--ltx-fg-color:#000000;">Instruction</span><span id="A5.F41.pic1.2.1.2" class="ltx_text" style="--ltx-fg-color:#000000;">: Produce the sound of a black bird commonly linked to death or misfortune.</span></span>
</span></span></span></foreignobject></g><g fill-opacity="1.0" transform="matrix(1.0 0.0 0.0 1.0 20.93 132.05)"><foreignobject style="--ltx-fo-width:31.48em;--ltx-fo-height:7.69em;--ltx-fo-depth:8.6em;font-size:10pt;" height="225.39" overflow="visible" transform="matrix(1 0 0 -1 0 106.39)" width="435.59"><span class="ltx_foreignobject_container"><span class="ltx_foreignobject_content">
<span id="A5.F41.pic1.3" class="ltx_inline-block ltx_minipage ltx_align_bottom" style="width:31.48em;">
<span id="A5.F41.pic1.3.1" class="ltx_block ltx_minipage ltx_align_top" style="width:151.1pt;">
<span id="A5.F41.pic1.3.1.1" class="ltx_p"><span id="A5.F41.pic1.3.1.1.1" class="ltx_text ltx_font_bold" style="--ltx-fg-color:#000000;">Good Example:</span><span id="A5.F41.pic1.3.1.1.2" class="ltx_text" style="--ltx-fg-color:#000000;"> </span><span id="A5.F41.pic1.3.1.1.3" class="ltx_text ltx_font_smallcaps" style="--ltx-fg-color:#000000;">Make-An-Audio 2
<br class="ltx_break"></span><span id="A5.F41.pic1.3.1.1.4" class="ltx_text ltx_font_bold" style="--ltx-fg-color:#000000;">Audio Description:</span><span id="A5.F41.pic1.3.1.1.5" class="ltx_text" style="--ltx-fg-color:#000000;"> an audio of very typical crow cry.</span></span>
<span id="A5.F41.pic1.3.1.2" class="ltx_p"><span id="A5.F41.pic1.3.1.2.1" class="ltx_text ltx_font_bold" style="--ltx-fg-color:#000000;">Evaluation:</span><span id="A5.F41.pic1.3.1.2.2" class="ltx_text" style="--ltx-fg-color:#000000;"> </span><span id="A5.F41.pic1.3.1.2.3" class="ltx_text" style="--ltx-fg-color:#008080;">✔</span></span>
</span>
<span id="A5.F41.pic1.3.2" class="ltx_block ltx_minipage ltx_align_top" style="width:151.1pt;">
<span id="A5.F41.pic1.3.2.1" class="ltx_p"><span id="A5.F41.pic1.3.2.1.1" class="ltx_text ltx_font_bold" style="--ltx-fg-color:#000000;">Bad Example:</span><span id="A5.F41.pic1.3.2.1.2" class="ltx_text" style="--ltx-fg-color:#000000;"> </span><span id="A5.F41.pic1.3.2.1.3" class="ltx_text ltx_font_smallcaps" style="--ltx-fg-color:#000000;">Stable Audio
<br class="ltx_break"></span><span id="A5.F41.pic1.3.2.1.4" class="ltx_text ltx_font_bold" style="--ltx-fg-color:#000000;">Audio Description:</span><span id="A5.F41.pic1.3.2.1.5" class="ltx_text" style="--ltx-fg-color:#000000;"> bright and melodious chirp of a certain kind of bird that’s obviously not crow.</span></span>
<span id="A5.F41.pic1.3.2.2" class="ltx_p"><span id="A5.F41.pic1.3.2.2.1" class="ltx_text ltx_font_bold" style="--ltx-fg-color:#000000;">Evaluation:</span><span id="A5.F41.pic1.3.2.2.2" class="ltx_text" style="--ltx-fg-color:#000000;"> </span><span id="A5.F41.pic1.3.2.2.3" class="ltx_text" style="--ltx-fg-color:#FF0000;">✘
<br class="ltx_break"></span></span>
</span>
</span></span></span></foreignobject></g></g></svg>