<svg id="A5.F49.pic1" class="ltx_picture ltx_centering" height="571.28" overflow="visible" version="1.1" viewbox="0 0 477.38 571.28" width="477.38"><g style="--ltx-stroke-color:#000000;--ltx-fill-color:#000000;" fill="#000000" stroke="#000000" stroke-width="0.4pt" transform="translate(0,571.28) matrix(1 0 0 -1 0 0)"><g style="--ltx-fill-color:#808080;" fill="#808080" fill-opacity="1.0"><path style="stroke:none" d="M 0 5.18 L 0 552.62 C 0 555.48 2.32 557.8 5.18 557.8 L 472.19 557.8 C 475.06 557.8 477.38 555.48 477.38 552.62 L 477.38 5.18 C 477.38 2.32 475.06 0 472.19 0 L 5.18 0 C 2.32 0 0 2.32 0 5.18 Z" /></g><g style="--ltx-fill-color:#FFFFFF;" fill="#FFFFFF" fill-opacity="1.0"><path style="stroke:none" d="M 1.25 5.18 L 1.25 552.62 C 1.25 554.79 3.01 556.55 5.18 556.55 L 472.19 556.55 C 474.37 556.55 476.13 554.79 476.13 552.62 L 476.13 5.18 C 476.13 3.01 474.37 1.25 472.19 1.25 L 5.18 1.25 C 3.01 1.25 1.25 3.01 1.25 5.18 Z" /></g><g style="--ltx-stroke-color:#808080;" fill-opacity="1.0" stroke="#808080" stroke-dasharray="2.84528pt,2.84528pt" stroke-dashoffset="0.0pt"><path style="fill:none" d="M 1.25 432.91 L 476.13 432.91" /></g><g transform="matrix(1.0 0.0 0.0 1.0 146.59 545.99)"><g style="--ltx-stroke-color:#000000;--ltx-fill-color:#000000;" class="ltx_nestedsvg" fill="#000000" stroke="#000000" stroke-width="0.4pt" transform="matrix(1 0 0 1 0 0)"><g style="--ltx-fill-color:#808080;" fill="#808080" fill-opacity="1.0"><path style="stroke:none" d="M 0 4.53 L 0 20.76 C 0 23.26 2.03 25.29 4.53 25.29 L 179.68 25.29 C 182.18 25.29 184.21 23.26 184.21 20.76 L 184.21 4.53 C 184.21 2.03 182.18 0 179.68 0 L 4.53 0 C 2.03 0 0 2.03 0 4.53 Z" /></g><g style="--ltx-fill-color:#808080;" fill="#808080" fill-opacity="1.0"><path style="stroke:none" d="M 1.57 4.53 L 1.57 20.76 C 1.57 22.39 2.9 23.72 4.53 23.72 L 179.68 23.72 C 181.31 23.72 182.63 22.39 182.63 20.76 L 182.63 4.53 C 182.63 2.9 181.31 1.57 179.68 1.57 L 4.53 1.57 C 2.9 1.57 1.57 2.9 1.57 4.53 Z" /></g><g fill-opacity="1.0" transform="matrix(1.0 0.0 0.0 1.0 13.39 9.19)"><foreignobject style="--ltx-fo-width:11.46em;--ltx-fo-height:0.69em;--ltx-fo-depth:0.19em;font-size:10pt;" height="12.3" overflow="visible" transform="matrix(1 0 0 -1 0 9.61)" width="158.59"><span class="ltx_foreignobject_container"><span class="ltx_foreignobject_content"><span id="A5.F49.pic1.1" class="ltx_text" style="--ltx-fg-color:#FFFFFF;">Speaker Voice Replication</span></span></span></foreignobject></g></g></g><g fill-opacity="1.0" transform="matrix(1.0 0.0 0.0 1.0 20.93 489.3)"><foreignobject style="--ltx-fo-width:31.48em;--ltx-fo-height:3.72em;--ltx-fo-depth:3.22em;font-size:10pt;" height="96.09" overflow="visible" transform="matrix(1 0 0 -1 0 51.5)" width="435.59"><span class="ltx_foreignobject_container"><span class="ltx_foreignobject_content">
<span id="A5.F49.pic1.2" class="ltx_inline-block ltx_minipage" style="width:31.48em;">
<span id="A5.F49.pic1.2.1" class="ltx_p ltx_minipage ltx_align_middle" style="width:314.8pt;"><span id="A5.F49.pic1.2.1.1" class="ltx_text ltx_font_bold" style="--ltx-fg-color:#000000;">Instruction</span><span id="A5.F49.pic1.2.1.2" class="ltx_text" style="--ltx-fg-color:#000000;">: Create an audio of reading the sentence, “The aroma of fresh coffee and warm pastries filled the air as she stepped into the café, instantly feeling a sense of comfort and familiarity in the cozy atmosphere,” using the same voice as the reference speaker. (reference speech: a gentle male sound)</span></span>
</span></span></span></foreignobject></g><g fill-opacity="1.0" transform="matrix(1.0 0.0 0.0 1.0 20.93 181.87)"><foreignobject style="--ltx-fo-width:31.48em;--ltx-fo-height:17.29em;--ltx-fo-depth:12.2em;font-size:10pt;" height="408.04" overflow="visible" transform="matrix(1 0 0 -1 0 239.23)" width="435.59"><span class="ltx_foreignobject_container"><span class="ltx_foreignobject_content">
<span id="A5.F49.pic1.3" class="ltx_inline-block ltx_minipage ltx_align_bottom" style="width:31.48em;">
<span id="A5.F49.pic1.3.1" class="ltx_block ltx_minipage ltx_align_top" style="width:151.1pt;">
<span id="A5.F49.pic1.3.1.1" class="ltx_p"><span id="A5.F49.pic1.3.1.1.1" class="ltx_text ltx_font_bold" style="--ltx-fg-color:#000000;">Good Example:</span><span id="A5.F49.pic1.3.1.1.2" class="ltx_text" style="--ltx-fg-color:#000000;"> </span><span id="A5.F49.pic1.3.1.1.3" class="ltx_text ltx_font_smallcaps" style="--ltx-fg-color:#000000;">Gemini 2.5</span><span id="A5.F49.pic1.3.1.1.4" class="ltx_text" style="--ltx-fg-color:#000000;"> + </span><span id="A5.F49.pic1.3.1.1.5" class="ltx_text ltx_font_smallcaps" style="--ltx-fg-color:#000000;">VoiceLDM
<br class="ltx_break"></span><span id="A5.F49.pic1.3.1.1.6" class="ltx_text ltx_font_bold" style="--ltx-fg-color:#000000;">Speech Transcript:</span><span id="A5.F49.pic1.3.1.1.7" class="ltx_text" style="--ltx-fg-color:#000000;"> (a warm, middle-pitched gentle male sound) The aroma of fresh coffee and warm pastries filled the air as she stepped into the café, instantly feeling a sense of comfort and familiarity in the cozy atmosphere.</span></span>
<span id="A5.F49.pic1.3.1.2" class="ltx_p"><span id="A5.F49.pic1.3.1.2.1" class="ltx_text ltx_font_bold" style="--ltx-fg-color:#000000;">Evaluation:</span><span id="A5.F49.pic1.3.1.2.2" class="ltx_text" style="--ltx-fg-color:#000000;"> </span><span id="A5.F49.pic1.3.1.2.3" class="ltx_text" style="--ltx-fg-color:#008080;">✔</span></span>
</span>
<span id="A5.F49.pic1.3.2" class="ltx_block ltx_minipage ltx_align_top" style="width:151.1pt;">
<span id="A5.F49.pic1.3.2.1" class="ltx_p"><span id="A5.F49.pic1.3.2.1.1" class="ltx_text ltx_font_bold" style="--ltx-fg-color:#000000;">Bad Example:</span><span id="A5.F49.pic1.3.2.1.2" class="ltx_text" style="--ltx-fg-color:#000000;"> </span><span id="A5.F49.pic1.3.2.1.3" class="ltx_text ltx_font_smallcaps" style="--ltx-fg-color:#000000;">Gemini 2.5</span><span id="A5.F49.pic1.3.2.1.4" class="ltx_text" style="--ltx-fg-color:#000000;"> + </span><span id="A5.F49.pic1.3.2.1.5" class="ltx_text ltx_font_smallcaps" style="--ltx-fg-color:#000000;">VoxInstruct
<br class="ltx_break"></span><span id="A5.F49.pic1.3.2.1.6" class="ltx_text ltx_font_bold" style="--ltx-fg-color:#000000;">Speech Transcript:</span><span id="A5.F49.pic1.3.2.1.7" class="ltx_text" style="--ltx-fg-color:#000000;"> (a hoarse male sound) The aroma of fresh coffee and warm pastries filled the air as she stepped into the café.</span></span>
<span id="A5.F49.pic1.3.2.2" class="ltx_p"><span id="A5.F49.pic1.3.2.2.1" class="ltx_text ltx_font_bold" style="--ltx-fg-color:#000000;">Evaluation:</span><span id="A5.F49.pic1.3.2.2.2" class="ltx_text" style="--ltx-fg-color:#000000;"> </span><span id="A5.F49.pic1.3.2.2.3" class="ltx_text" style="--ltx-fg-color:#FF0000;">✘
<br class="ltx_break"></span></span>
</span>
</span></span></span></foreignobject></g></g></svg>