<svg id="S4.F2.pic5" class="ltx_picture ltx_centering" height="158.1" overflow="visible" version="1.1" viewbox="0 0 181.41 158.1" width="181.41"><g style="--ltx-stroke-color:#000000;--ltx-fill-color:#000000;" fill="#000000" stroke="#000000" stroke-width="0.4pt" transform="translate(0,158.1) matrix(1 0 0 -1 0 0) translate(39.27,0) translate(0,38.59) matrix(1.0 0.0 0.0 1.0 -39.27 -38.59)"><g class="ltx_nestedsvg" transform="matrix(1 0 0 1 0 0) translate(39.27,0) translate(0,38.59)"><g style="--ltx-stroke-color:#BFBFBF;--ltx-fill-color:#BFBFBF;--ltx-fg-color:#BFBFBF;" color="#BFBFBF" fill="#BFBFBF" stroke="#BFBFBF" stroke-width="0.4pt"><path style="fill:none" d="M 0 15.87 L 134.58 15.87 M 0 31.74 L 134.58 31.74 M 0 47.61 L 134.58 47.61 M 0 63.48 L 134.58 63.48 M 0 79.34 L 134.58 79.34 M 0 95.21 L 134.58 95.21" /></g><g style="--ltx-stroke-color:#808080;--ltx-fill-color:#808080;--ltx-fg-color:#808080;" color="#808080" fill="#808080" stroke="#808080" stroke-width="0.2pt"><path style="fill:none" d="M 4.34 0 L 4.34 5.91 M 47.76 0 L 47.76 5.91 M 91.17 0 L 91.17 5.91 M 134.58 0 L 134.58 5.91 M 4.34 95.21 L 4.34 89.31 M 47.76 95.21 L 47.76 89.31 M 91.17 95.21 L 91.17 89.31 M 134.58 95.21 L 134.58 89.31" /></g><g style="--ltx-stroke-color:#808080;--ltx-fill-color:#808080;--ltx-fg-color:#808080;" color="#808080" fill="#808080" stroke="#808080" stroke-width="0.2pt"><path style="fill:none" d="M 0 15.87 L 5.91 15.87 M 0 31.74 L 5.91 31.74 M 0 47.61 L 5.91 47.61 M 0 63.48 L 5.91 63.48 M 0 79.34 L 5.91 79.34 M 0 95.21 L 5.91 95.21 M 134.58 15.87 L 128.68 15.87 M 134.58 31.74 L 128.68 31.74 M 134.58 47.61 L 128.68 47.61 M 134.58 63.48 L 128.68 63.48 M 134.58 79.34 L 128.68 79.34 M 134.58 95.21 L 128.68 95.21" /></g><g style="--ltx-stroke-color:#000000;--ltx-fill-color:#000000;" fill="#000000" stroke="#000000" stroke-width="0.4pt"><path style="fill:none" d="M 0 0 L 0 95.21 L 134.58 95.21 L 134.58 0 L 0 0 Z" /><g style="--ltx-stroke-color:#000000;--ltx-fill-color:#000000;" fill="#000000" stroke="#000000" transform="matrix(1.0 0.0 0.0 1.0 1.4 -12.02)"><foreignobject style="--ltx-fo-width:0.5em;--ltx-fo-height:0.61em;--ltx-fo-depth:0em;font-size:8.5pt;" height="7.13" overflow="visible" transform="matrix(1 0 0 -1 0 7.13)" width="5.88"><span class="ltx_foreignobject_container"><span class="ltx_foreignobject_content"><math id="S4.F2.pic5.m1" class="ltx_Math" alttext="0" display="inline" intent=":literal"><semantics><mn mathsize="0.800em">0</mn><annotation encoding="application/x-tex">0</annotation></semantics></math></span></span></foreignobject></g><g style="--ltx-stroke-color:#000000;--ltx-fill-color:#000000;" fill="#000000" stroke="#000000" transform="matrix(1.0 0.0 0.0 1.0 44.81 -12.02)"><foreignobject style="--ltx-fo-width:0.5em;--ltx-fo-height:0.61em;--ltx-fo-depth:0em;font-size:8.5pt;" height="7.13" overflow="visible" transform="matrix(1 0 0 -1 0 7.13)" width="5.88"><span class="ltx_foreignobject_container"><span class="ltx_foreignobject_content"><math id="S4.F2.pic5.m2" class="ltx_Math" alttext="1" display="inline" intent=":literal"><semantics><mn mathsize="0.800em">1</mn><annotation encoding="application/x-tex">1</annotation></semantics></math></span></span></foreignobject></g><g style="--ltx-stroke-color:#000000;--ltx-fill-color:#000000;" fill="#000000" stroke="#000000" transform="matrix(1.0 0.0 0.0 1.0 88.23 -12.02)"><foreignobject style="--ltx-fo-width:0.5em;--ltx-fo-height:0.61em;--ltx-fo-depth:0em;font-size:8.5pt;" height="7.13" overflow="visible" transform="matrix(1 0 0 -1 0 7.13)" width="5.88"><span class="ltx_foreignobject_container"><span class="ltx_foreignobject_content"><math id="S4.F2.pic5.m3" class="ltx_Math" alttext="2" display="inline" intent=":literal"><semantics><mn mathsize="0.800em">2</mn><annotation encoding="application/x-tex">2</annotation></semantics></math></span></span></foreignobject></g><g style="--ltx-stroke-color:#000000;--ltx-fill-color:#000000;" fill="#000000" stroke="#000000" transform="matrix(1.0 0.0 0.0 1.0 131.64 -12.02)"><foreignobject style="--ltx-fo-width:0.5em;--ltx-fo-height:0.61em;--ltx-fo-depth:0em;font-size:8.5pt;" height="7.13" overflow="visible" transform="matrix(1 0 0 -1 0 7.13)" width="5.88"><span class="ltx_foreignobject_container"><span class="ltx_foreignobject_content"><math id="S4.F2.pic5.m4" class="ltx_Math" alttext="3" display="inline" intent=":literal"><semantics><mn mathsize="0.800em">3</mn><annotation encoding="application/x-tex">3</annotation></semantics></math></span></span></foreignobject></g><g style="--ltx-stroke-color:#000000;--ltx-fill-color:#000000;" fill="#000000" stroke="#000000" transform="matrix(1.0 0.0 0.0 1.0 -10.77 12.3)"><foreignobject style="--ltx-fo-width:0.5em;--ltx-fo-height:0.61em;--ltx-fo-depth:0em;font-size:8.5pt;" height="7.13" overflow="visible" transform="matrix(1 0 0 -1 0 7.13)" width="5.88"><span class="ltx_foreignobject_container"><span class="ltx_foreignobject_content"><math id="S4.F2.pic5.m5" class="ltx_Math" alttext="5" display="inline" intent=":literal"><semantics><mn mathsize="0.800em">5</mn><annotation encoding="application/x-tex">5</annotation></semantics></math></span></span></foreignobject></g><g style="--ltx-stroke-color:#000000;--ltx-fill-color:#000000;" fill="#000000" stroke="#000000" transform="matrix(1.0 0.0 0.0 1.0 -16.65 28.17)"><foreignobject style="--ltx-fo-width:1em;--ltx-fo-height:0.61em;--ltx-fo-depth:0em;font-size:8.5pt;" height="7.13" overflow="visible" transform="matrix(1 0 0 -1 0 7.13)" width="11.76"><span class="ltx_foreignobject_container"><span class="ltx_foreignobject_content"><math id="S4.F2.pic5.m6" class="ltx_Math" alttext="10" display="inline" intent=":literal"><semantics><mn mathsize="0.800em">10</mn><annotation encoding="application/x-tex">10</annotation></semantics></math></span></span></foreignobject></g><g style="--ltx-stroke-color:#000000;--ltx-fill-color:#000000;" fill="#000000" stroke="#000000" transform="matrix(1.0 0.0 0.0 1.0 -16.65 44.04)"><foreignobject style="--ltx-fo-width:1em;--ltx-fo-height:0.61em;--ltx-fo-depth:0em;font-size:8.5pt;" height="7.13" overflow="visible" transform="matrix(1 0 0 -1 0 7.13)" width="11.76"><span class="ltx_foreignobject_container"><span class="ltx_foreignobject_content"><math id="S4.F2.pic5.m7" class="ltx_Math" alttext="15" display="inline" intent=":literal"><semantics><mn mathsize="0.800em">15</mn><annotation encoding="application/x-tex">15</annotation></semantics></math></span></span></foreignobject></g><g style="--ltx-stroke-color:#000000;--ltx-fill-color:#000000;" fill="#000000" stroke="#000000" transform="matrix(1.0 0.0 0.0 1.0 -16.65 59.91)"><foreignobject style="--ltx-fo-width:1em;--ltx-fo-height:0.61em;--ltx-fo-depth:0em;font-size:8.5pt;" height="7.13" overflow="visible" transform="matrix(1 0 0 -1 0 7.13)" width="11.76"><span class="ltx_foreignobject_container"><span class="ltx_foreignobject_content"><math id="S4.F2.pic5.m8" class="ltx_Math" alttext="20" display="inline" intent=":literal"><semantics><mn mathsize="0.800em">20</mn><annotation encoding="application/x-tex">20</annotation></semantics></math></span></span></foreignobject></g><g style="--ltx-stroke-color:#000000;--ltx-fill-color:#000000;" fill="#000000" stroke="#000000" transform="matrix(1.0 0.0 0.0 1.0 -16.65 75.78)"><foreignobject style="--ltx-fo-width:1em;--ltx-fo-height:0.61em;--ltx-fo-depth:0em;font-size:8.5pt;" height="7.13" overflow="visible" transform="matrix(1 0 0 -1 0 7.13)" width="11.76"><span class="ltx_foreignobject_container"><span class="ltx_foreignobject_content"><math id="S4.F2.pic5.m9" class="ltx_Math" alttext="25" display="inline" intent=":literal"><semantics><mn mathsize="0.800em">25</mn><annotation encoding="application/x-tex">25</annotation></semantics></math></span></span></foreignobject></g><g style="--ltx-stroke-color:#000000;--ltx-fill-color:#000000;" fill="#000000" stroke="#000000" transform="matrix(1.0 0.0 0.0 1.0 -16.65 91.65)"><foreignobject style="--ltx-fo-width:1em;--ltx-fo-height:0.61em;--ltx-fo-depth:0em;font-size:8.5pt;" height="7.13" overflow="visible" transform="matrix(1 0 0 -1 0 7.13)" width="11.76"><span class="ltx_foreignobject_container"><span class="ltx_foreignobject_content"><math id="S4.F2.pic5.m10" class="ltx_Math" alttext="30" display="inline" intent=":literal"><semantics><mn mathsize="0.800em">30</mn><annotation encoding="application/x-tex">30</annotation></semantics></math></span></span></foreignobject></g><clippath id="pgfcp5"><path d="M 0 0 L 134.58 0 L 134.58 95.21 L 0 95.21 Z" /></clippath><g clip-path="url(#pgfcp5)"><g style="--ltx-stroke-color:#1F77B4;--ltx-fill-color:#1F77B4;" fill="#1F77B4" stroke="#1F77B4"><path style="fill:none" d="M 8.81 84.13 L 27.31 83.61 L 53.01 85.29 L 69.11 83.88" /></g><g></g><g style="--ltx-stroke-color:#FF7F0E;--ltx-fill-color:#FF7F0E;" fill="#FF7F0E" stroke="#FF7F0E"><path style="fill:none" d="M 18.45 85.42 L 35.34 84.86 L 47.41 86.23" /></g><g></g><g style="--ltx-stroke-color:#2CA02C;--ltx-fill-color:#2CA02C;" fill="#2CA02C" stroke="#2CA02C"><path style="fill:none" d="M 22.49 18.76 L 48.19 15.87 L 69.11 14.22" /></g><g></g><g style="--ltx-stroke-color:#D62728;--ltx-fill-color:#D62728;" fill="#D62728" stroke="#D62728"><path style="fill:none" d="M 4.78 47.93 L 59.87 48.47" /></g><g></g><g style="--ltx-stroke-color:#9467BD;--ltx-fill-color:#9467BD;" fill="#9467BD" stroke="#9467BD"><path style="fill:none" d="M 28.09 67.94 L 111.7 67.19" /></g><g></g></g><g style="--ltx-stroke-color:#1F77B4;--ltx-fill-color:#1F77B4;--ltx-fg-color:#1F77B4;" color="#1F77B4" fill="#1F77B4" stroke="#1F77B4"><path d="M 11.58 84.13 C 11.58 85.66 10.34 86.9 8.81 86.9 C 7.28 86.9 6.05 85.66 6.05 84.13 C 6.05 82.6 7.28 81.36 8.81 81.36 C 10.34 81.36 11.58 82.6 11.58 84.13 Z M 8.81 84.13" /><path d="M 30.07 83.61 C 30.07 85.14 28.84 86.37 27.31 86.37 C 25.78 86.37 24.54 85.14 24.54 83.61 C 24.54 82.08 25.78 80.84 27.31 80.84 C 28.84 80.84 30.07 82.08 30.07 83.61 Z M 27.31 83.61" /><path d="M 55.78 85.29 C 55.78 86.81 54.54 88.05 53.01 88.05 C 51.48 88.05 50.24 86.81 50.24 85.29 C 50.24 83.76 51.48 82.52 53.01 82.52 C 54.54 82.52 55.78 83.76 55.78 85.29 Z M 53.01 85.29" /><path d="M 71.88 83.88 C 71.88 85.41 70.64 86.65 69.11 86.65 C 67.59 86.65 66.35 85.41 66.35 83.88 C 66.35 82.35 67.59 81.12 69.11 81.12 C 70.64 81.12 71.88 82.35 71.88 83.88 Z M 69.11 83.88" /></g><g style="--ltx-stroke-color:#FF7F0E;--ltx-fill-color:#FF7F0E;--ltx-fg-color:#FF7F0E;" color="#FF7F0E" fill="#FF7F0E" stroke="#FF7F0E"><path d="M 21.22 85.42 C 21.22 86.95 19.98 88.19 18.45 88.19 C 16.92 88.19 15.68 86.95 15.68 85.42 C 15.68 83.89 16.92 82.66 18.45 82.66 C 19.98 82.66 21.22 83.89 21.22 85.42 Z M 18.45 85.42" /><path d="M 38.11 84.86 C 38.11 86.39 36.87 87.63 35.34 87.63 C 33.81 87.63 32.57 86.39 32.57 84.86 C 32.57 83.33 33.81 82.09 35.34 82.09 C 36.87 82.09 38.11 83.33 38.11 84.86 Z M 35.34 84.86" /><path d="M 50.18 86.23 C 50.18 87.76 48.94 89 47.41 89 C 45.88 89 44.64 87.76 44.64 86.23 C 44.64 84.7 45.88 83.46 47.41 83.46 C 48.94 83.46 50.18 84.7 50.18 86.23 Z M 47.41 86.23" /></g><g style="--ltx-stroke-color:#2CA02C;--ltx-fill-color:#2CA02C;--ltx-fg-color:#2CA02C;" color="#2CA02C" fill="#2CA02C" stroke="#2CA02C"><path d="M 25.26 18.76 C 25.26 20.29 24.02 21.53 22.49 21.53 C 20.96 21.53 19.72 20.29 19.72 18.76 C 19.72 17.23 20.96 15.99 22.49 15.99 C 24.02 15.99 25.26 17.23 25.26 18.76 Z M 22.49 18.76" /><path d="M 50.96 15.87 C 50.96 17.4 49.72 18.64 48.19 18.64 C 46.66 18.64 45.42 17.4 45.42 15.87 C 45.42 14.34 46.66 13.1 48.19 13.1 C 49.72 13.1 50.96 14.34 50.96 15.87 Z M 48.19 15.87" /><path d="M 71.88 14.22 C 71.88 15.74 70.64 16.98 69.11 16.98 C 67.59 16.98 66.35 15.74 66.35 14.22 C 66.35 12.69 67.59 11.45 69.11 11.45 C 70.64 11.45 71.88 12.69 71.88 14.22 Z M 69.11 14.22" /></g><g style="--ltx-stroke-color:#D62728;--ltx-fill-color:#D62728;--ltx-fg-color:#D62728;" color="#D62728" fill="#D62728" stroke="#D62728"><path d="M 7.54 47.93 C 7.54 49.46 6.3 50.7 4.78 50.7 C 3.25 50.7 2.01 49.46 2.01 47.93 C 2.01 46.4 3.25 45.16 4.78 45.16 C 6.3 45.16 7.54 46.4 7.54 47.93 Z M 4.78 47.93" /><path d="M 62.63 48.47 C 62.63 50 61.4 51.24 59.87 51.24 C 58.34 51.24 57.1 50 57.1 48.47 C 57.1 46.94 58.34 45.71 59.87 45.71 C 61.4 45.71 62.63 46.94 62.63 48.47 Z M 59.87 48.47" /></g><g style="--ltx-stroke-color:#9467BD;--ltx-fill-color:#9467BD;--ltx-fg-color:#9467BD;" color="#9467BD" fill="#9467BD" stroke="#9467BD"><path d="M 30.86 67.94 C 30.86 69.47 29.62 70.71 28.09 70.71 C 26.56 70.71 25.32 69.47 25.32 67.94 C 25.32 66.42 26.56 65.18 28.09 65.18 C 29.62 65.18 30.86 66.42 30.86 67.94 Z M 28.09 67.94" /><path d="M 114.47 67.19 C 114.47 68.71 113.23 69.95 111.7 69.95 C 110.18 69.95 108.94 68.71 108.94 67.19 C 108.94 65.66 110.18 64.42 111.7 64.42 C 113.23 64.42 114.47 65.66 114.47 67.19 Z M 111.7 67.19" /></g><g style="--ltx-stroke-color:#000000;--ltx-fill-color:#000000;" fill="#000000" stroke="#000000" transform="matrix(1.0 0.0 0.0 1.0 24.54 -30.86)"><foreignobject style="--ltx-fo-width:6.68em;--ltx-fo-height:0.73em;--ltx-fo-depth:0.24em;font-size:9.25pt;" height="12.45" overflow="visible" transform="matrix(1 0 0 -1 0 9.34)" width="85.5"><span class="ltx_foreignobject_container"><span class="ltx_foreignobject_content"><span id="S4.F2.pic5.1" class="ltx_text" style="font-size:90%;">Start Offset (s)</span></span></span></foreignobject></g><g style="--ltx-stroke-color:#000000;--ltx-fill-color:#000000;" fill="#000000" stroke="#000000" transform="matrix(0.0 1.0 -1.0 0.0 -26.15 14.72)"><foreignobject style="--ltx-fo-width:5.14em;--ltx-fo-height:0.66em;--ltx-fo-depth:0em;font-size:9.25pt;" height="8.51" overflow="visible" transform="matrix(1 0 0 -1 0 8.51)" width="65.77"><span class="ltx_foreignobject_container"><span class="ltx_foreignobject_content"><span id="S4.F2.pic5.2" class="ltx_text" style="font-size:90%;">ASR-BLEU</span></span></span></foreignobject></g><g style="--ltx-stroke-color:#000000;--ltx-fill-color:#000000;" fill="#000000" stroke="#000000" transform="matrix(1.0 0.0 0.0 1.0 42.75 105.56)"><foreignobject style="--ltx-fo-width:3.83em;--ltx-fo-height:0.73em;--ltx-fo-depth:0.24em;font-size:9.25pt;" height="12.45" overflow="visible" transform="matrix(1 0 0 -1 0 9.34)" width="49.07"><span class="ltx_foreignobject_container"><span class="ltx_foreignobject_content"><span id="S4.F2.pic5.3" class="ltx_text" style="font-size:90%;">(e) en-pt</span></span></span></foreignobject></g></g></g></g></svg>