<svg id="S4.F4.sf1.pic1" class="ltx_picture ltx_centering" height="525.38" overflow="visible" version="1.1" viewbox="0 0 634.41 525.38" width="634.41"><g style="--ltx-stroke-color:#000000;--ltx-fill-color:#000000;" fill="#000000" stroke="#000000" stroke-width="0.4pt" transform="translate(0,525.38) matrix(1 0 0 -1 0 0) translate(36.41,0) translate(0,37.37) matrix(1.0 0.0 0.0 1.0 -36.41 -37.37)"><g class="ltx_nestedsvg" transform="matrix(1 0 0 1 0 0) translate(86.22,0) translate(0,78.02)"><g style="--ltx-stroke-color:#BFBFBF;--ltx-fill-color:#BFBFBF;--ltx-fg-color:#BFBFBF;" color="#BFBFBF" fill="#BFBFBF" stroke="#BFBFBF" stroke-dasharray="0.4pt,2.0pt" stroke-dashoffset="0.0pt" stroke-width="0.4pt"><path style="fill:none" d="M 0 -40.65 L 0 447.09 M 124.53 -40.65 L 124.53 447.09 M 249.05 -40.65 L 249.05 447.09 M 373.58 -40.65 L 373.58 447.09 M 498.1 -40.65 L 498.1 447.09" /></g><g style="--ltx-stroke-color:#BFBFBF;--ltx-fill-color:#BFBFBF;--ltx-fg-color:#BFBFBF;" color="#BFBFBF" fill="#BFBFBF" stroke="#BFBFBF" stroke-dasharray="0.4pt,2.0pt" stroke-dashoffset="0.0pt" stroke-width="0.4pt"><path style="fill:none" d="M -49.81 -24.88 L 547.92 -24.88 M -49.81 16.59 L 547.92 16.59 M -49.81 58.06 L 547.92 58.06 M -49.81 99.54 L 547.92 99.54 M -49.81 141.01 L 547.92 141.01 M -49.81 182.48 L 547.92 182.48 M -49.81 223.96 L 547.92 223.96 M -49.81 265.43 L 547.92 265.43 M -49.81 306.9 L 547.92 306.9 M -49.81 348.38 L 547.92 348.38 M -49.81 389.85 L 547.92 389.85 M -49.81 431.32 L 547.92 431.32" /></g><g style="--ltx-stroke-color:#808080;--ltx-fill-color:#808080;--ltx-fg-color:#808080;" color="#808080" fill="#808080" stroke="#808080" stroke-width="0.2pt"><path style="fill:none" d="M 0 -40.65 L 0 -34.74 M 124.53 -40.65 L 124.53 -34.74 M 249.05 -40.65 L 249.05 -34.74 M 373.58 -40.65 L 373.58 -34.74 M 498.1 -40.65 L 498.1 -34.74 M 0 447.09 L 0 441.18 M 124.53 447.09 L 124.53 441.18 M 249.05 447.09 L 249.05 441.18 M 373.58 447.09 L 373.58 441.18 M 498.1 447.09 L 498.1 441.18" /></g><g style="--ltx-stroke-color:#808080;--ltx-fill-color:#808080;--ltx-fg-color:#808080;" color="#808080" fill="#808080" stroke="#808080" stroke-width="0.2pt"><path style="fill:none" d="M -49.81 -24.88 L -43.91 -24.88 M -49.81 16.59 L -43.91 16.59 M -49.81 58.06 L -43.91 58.06 M -49.81 99.54 L -43.91 99.54 M -49.81 141.01 L -43.91 141.01 M -49.81 182.48 L -43.91 182.48 M -49.81 223.96 L -43.91 223.96 M -49.81 265.43 L -43.91 265.43 M -49.81 306.9 L -43.91 306.9 M -49.81 348.38 L -43.91 348.38 M -49.81 389.85 L -43.91 389.85 M -49.81 431.32 L -43.91 431.32 M 547.92 -24.88 L 542.01 -24.88 M 547.92 16.59 L 542.01 16.59 M 547.92 58.06 L 542.01 58.06 M 547.92 99.54 L 542.01 99.54 M 547.92 141.01 L 542.01 141.01 M 547.92 182.48 L 542.01 182.48 M 547.92 223.96 L 542.01 223.96 M 547.92 265.43 L 542.01 265.43 M 547.92 306.9 L 542.01 306.9 M 547.92 348.38 L 542.01 348.38 M 547.92 389.85 L 542.01 389.85 M 547.92 431.32 L 542.01 431.32" /></g><g style="--ltx-stroke-color:#000000;--ltx-fill-color:#000000;" fill="#000000" stroke="#000000" stroke-width="0.4pt"><path style="fill:none" d="M -49.81 -40.65 L -49.81 447.09 L 547.92 447.09 L 547.92 -40.65 L -49.81 -40.65 Z" /><g style="--ltx-stroke-color:#000000;--ltx-fill-color:#000000;" fill="#000000" stroke="#000000" transform="matrix(1.0 0.0 0.0 1.0 -3.46 -54.45)"><foreignobject style="--ltx-fo-width:0.5em;--ltx-fo-height:0.64em;--ltx-fo-depth:0em;font-size:10pt;" height="8.92" overflow="visible" transform="matrix(1 0 0 -1 0 8.92)" width="6.92"><span class="ltx_foreignobject_container"><span class="ltx_foreignobject_content"><math id="S4.F4.sf1.pic1.m1" class="ltx_Math" alttext="1" display="inline" intent=":literal"><semantics><mn>1</mn><annotation encoding="application/x-tex">1</annotation></semantics></math></span></span></foreignobject></g><g style="--ltx-stroke-color:#000000;--ltx-fill-color:#000000;" fill="#000000" stroke="#000000" transform="matrix(1.0 0.0 0.0 1.0 121.07 -54.45)"><foreignobject style="--ltx-fo-width:0.5em;--ltx-fo-height:0.64em;--ltx-fo-depth:0em;font-size:10pt;" height="8.92" overflow="visible" transform="matrix(1 0 0 -1 0 8.92)" width="6.92"><span class="ltx_foreignobject_container"><span class="ltx_foreignobject_content"><math id="S4.F4.sf1.pic1.m2" class="ltx_Math" alttext="2" display="inline" intent=":literal"><semantics><mn>2</mn><annotation encoding="application/x-tex">2</annotation></semantics></math></span></span></foreignobject></g><g style="--ltx-stroke-color:#000000;--ltx-fill-color:#000000;" fill="#000000" stroke="#000000" transform="matrix(1.0 0.0 0.0 1.0 245.59 -54.45)"><foreignobject style="--ltx-fo-width:0.5em;--ltx-fo-height:0.64em;--ltx-fo-depth:0em;font-size:10pt;" height="8.92" overflow="visible" transform="matrix(1 0 0 -1 0 8.92)" width="6.92"><span class="ltx_foreignobject_container"><span class="ltx_foreignobject_content"><math id="S4.F4.sf1.pic1.m3" class="ltx_Math" alttext="3" display="inline" intent=":literal"><semantics><mn>3</mn><annotation encoding="application/x-tex">3</annotation></semantics></math></span></span></foreignobject></g><g style="--ltx-stroke-color:#000000;--ltx-fill-color:#000000;" fill="#000000" stroke="#000000" transform="matrix(1.0 0.0 0.0 1.0 370.12 -54.45)"><foreignobject style="--ltx-fo-width:0.5em;--ltx-fo-height:0.64em;--ltx-fo-depth:0em;font-size:10pt;" height="8.92" overflow="visible" transform="matrix(1 0 0 -1 0 8.92)" width="6.92"><span class="ltx_foreignobject_container"><span class="ltx_foreignobject_content"><math id="S4.F4.sf1.pic1.m4" class="ltx_Math" alttext="4" display="inline" intent=":literal"><semantics><mn>4</mn><annotation encoding="application/x-tex">4</annotation></semantics></math></span></span></foreignobject></g><g style="--ltx-stroke-color:#000000;--ltx-fill-color:#000000;" fill="#000000" stroke="#000000" transform="matrix(1.0 0.0 0.0 1.0 494.64 -54.45)"><foreignobject style="--ltx-fo-width:0.5em;--ltx-fo-height:0.64em;--ltx-fo-depth:0em;font-size:10pt;" height="8.92" overflow="visible" transform="matrix(1 0 0 -1 0 8.92)" width="6.92"><span class="ltx_foreignobject_container"><span class="ltx_foreignobject_content"><math id="S4.F4.sf1.pic1.m5" class="ltx_Math" alttext="5" display="inline" intent=":literal"><semantics><mn>5</mn><annotation encoding="application/x-tex">5</annotation></semantics></math></span></span></foreignobject></g><g style="--ltx-stroke-color:#000000;--ltx-fill-color:#000000;" fill="#000000" stroke="#000000" transform="matrix(1.0 0.0 0.0 1.0 -81.61 -29.34)"><foreignobject style="--ltx-fo-width:1.94em;--ltx-fo-height:0.64em;--ltx-fo-depth:0em;font-size:10pt;" height="8.92" overflow="visible" transform="matrix(1 0 0 -1 0 8.92)" width="26.91"><span class="ltx_foreignobject_container"><span class="ltx_foreignobject_content"><math id="S4.F4.sf1.pic1.m6" class="ltx_Math" alttext="0.42" display="inline" intent=":literal"><semantics><mn>0.42</mn><annotation encoding="application/x-tex">0.42</annotation></semantics></math></span></span></foreignobject></g><g style="--ltx-stroke-color:#000000;--ltx-fill-color:#000000;" fill="#000000" stroke="#000000" transform="matrix(1.0 0.0 0.0 1.0 -81.61 12.13)"><foreignobject style="--ltx-fo-width:1.94em;--ltx-fo-height:0.64em;--ltx-fo-depth:0em;font-size:10pt;" height="8.92" overflow="visible" transform="matrix(1 0 0 -1 0 8.92)" width="26.91"><span class="ltx_foreignobject_container"><span class="ltx_foreignobject_content"><math id="S4.F4.sf1.pic1.m7" class="ltx_Math" alttext="0.42" display="inline" intent=":literal"><semantics><mn>0.42</mn><annotation encoding="application/x-tex">0.42</annotation></semantics></math></span></span></foreignobject></g><g style="--ltx-stroke-color:#000000;--ltx-fill-color:#000000;" fill="#000000" stroke="#000000" transform="matrix(1.0 0.0 0.0 1.0 -81.61 53.6)"><foreignobject style="--ltx-fo-width:1.94em;--ltx-fo-height:0.64em;--ltx-fo-depth:0em;font-size:10pt;" height="8.92" overflow="visible" transform="matrix(1 0 0 -1 0 8.92)" width="26.91"><span class="ltx_foreignobject_container"><span class="ltx_foreignobject_content"><math id="S4.F4.sf1.pic1.m8" class="ltx_Math" alttext="0.43" display="inline" intent=":literal"><semantics><mn>0.43</mn><annotation encoding="application/x-tex">0.43</annotation></semantics></math></span></span></foreignobject></g><g style="--ltx-stroke-color:#000000;--ltx-fill-color:#000000;" fill="#000000" stroke="#000000" transform="matrix(1.0 0.0 0.0 1.0 -81.61 95.08)"><foreignobject style="--ltx-fo-width:1.94em;--ltx-fo-height:0.64em;--ltx-fo-depth:0em;font-size:10pt;" height="8.92" overflow="visible" transform="matrix(1 0 0 -1 0 8.92)" width="26.91"><span class="ltx_foreignobject_container"><span class="ltx_foreignobject_content"><math id="S4.F4.sf1.pic1.m9" class="ltx_Math" alttext="0.43" display="inline" intent=":literal"><semantics><mn>0.43</mn><annotation encoding="application/x-tex">0.43</annotation></semantics></math></span></span></foreignobject></g><g style="--ltx-stroke-color:#000000;--ltx-fill-color:#000000;" fill="#000000" stroke="#000000" transform="matrix(1.0 0.0 0.0 1.0 -81.61 136.55)"><foreignobject style="--ltx-fo-width:1.94em;--ltx-fo-height:0.64em;--ltx-fo-depth:0em;font-size:10pt;" height="8.92" overflow="visible" transform="matrix(1 0 0 -1 0 8.92)" width="26.91"><span class="ltx_foreignobject_container"><span class="ltx_foreignobject_content"><math id="S4.F4.sf1.pic1.m10" class="ltx_Math" alttext="0.44" display="inline" intent=":literal"><semantics><mn>0.44</mn><annotation encoding="application/x-tex">0.44</annotation></semantics></math></span></span></foreignobject></g><g style="--ltx-stroke-color:#000000;--ltx-fill-color:#000000;" fill="#000000" stroke="#000000" transform="matrix(1.0 0.0 0.0 1.0 -81.61 178.02)"><foreignobject style="--ltx-fo-width:1.94em;--ltx-fo-height:0.64em;--ltx-fo-depth:0em;font-size:10pt;" height="8.92" overflow="visible" transform="matrix(1 0 0 -1 0 8.92)" width="26.91"><span class="ltx_foreignobject_container"><span class="ltx_foreignobject_content"><math id="S4.F4.sf1.pic1.m11" class="ltx_Math" alttext="0.44" display="inline" intent=":literal"><semantics><mn>0.44</mn><annotation encoding="application/x-tex">0.44</annotation></semantics></math></span></span></foreignobject></g><g style="--ltx-stroke-color:#000000;--ltx-fill-color:#000000;" fill="#000000" stroke="#000000" transform="matrix(1.0 0.0 0.0 1.0 -81.61 219.5)"><foreignobject style="--ltx-fo-width:1.94em;--ltx-fo-height:0.64em;--ltx-fo-depth:0em;font-size:10pt;" height="8.92" overflow="visible" transform="matrix(1 0 0 -1 0 8.92)" width="26.91"><span class="ltx_foreignobject_container"><span class="ltx_foreignobject_content"><math id="S4.F4.sf1.pic1.m12" class="ltx_Math" alttext="0.45" display="inline" intent=":literal"><semantics><mn>0.45</mn><annotation encoding="application/x-tex">0.45</annotation></semantics></math></span></span></foreignobject></g><g style="--ltx-stroke-color:#000000;--ltx-fill-color:#000000;" fill="#000000" stroke="#000000" transform="matrix(1.0 0.0 0.0 1.0 -81.61 260.97)"><foreignobject style="--ltx-fo-width:1.94em;--ltx-fo-height:0.64em;--ltx-fo-depth:0em;font-size:10pt;" height="8.92" overflow="visible" transform="matrix(1 0 0 -1 0 8.92)" width="26.91"><span class="ltx_foreignobject_container"><span class="ltx_foreignobject_content"><math id="S4.F4.sf1.pic1.m13" class="ltx_Math" alttext="0.45" display="inline" intent=":literal"><semantics><mn>0.45</mn><annotation encoding="application/x-tex">0.45</annotation></semantics></math></span></span></foreignobject></g><g style="--ltx-stroke-color:#000000;--ltx-fill-color:#000000;" fill="#000000" stroke="#000000" transform="matrix(1.0 0.0 0.0 1.0 -81.61 302.44)"><foreignobject style="--ltx-fo-width:1.94em;--ltx-fo-height:0.64em;--ltx-fo-depth:0em;font-size:10pt;" height="8.92" overflow="visible" transform="matrix(1 0 0 -1 0 8.92)" width="26.91"><span class="ltx_foreignobject_container"><span class="ltx_foreignobject_content"><math id="S4.F4.sf1.pic1.m14" class="ltx_Math" alttext="0.46" display="inline" intent=":literal"><semantics><mn>0.46</mn><annotation encoding="application/x-tex">0.46</annotation></semantics></math></span></span></foreignobject></g><g style="--ltx-stroke-color:#000000;--ltx-fill-color:#000000;" fill="#000000" stroke="#000000" transform="matrix(1.0 0.0 0.0 1.0 -81.61 343.92)"><foreignobject style="--ltx-fo-width:1.94em;--ltx-fo-height:0.64em;--ltx-fo-depth:0em;font-size:10pt;" height="8.92" overflow="visible" transform="matrix(1 0 0 -1 0 8.92)" width="26.91"><span class="ltx_foreignobject_container"><span class="ltx_foreignobject_content"><math id="S4.F4.sf1.pic1.m15" class="ltx_Math" alttext="0.46" display="inline" intent=":literal"><semantics><mn>0.46</mn><annotation encoding="application/x-tex">0.46</annotation></semantics></math></span></span></foreignobject></g><g style="--ltx-stroke-color:#000000;--ltx-fill-color:#000000;" fill="#000000" stroke="#000000" transform="matrix(1.0 0.0 0.0 1.0 -81.61 385.39)"><foreignobject style="--ltx-fo-width:1.94em;--ltx-fo-height:0.64em;--ltx-fo-depth:0em;font-size:10pt;" height="8.92" overflow="visible" transform="matrix(1 0 0 -1 0 8.92)" width="26.91"><span class="ltx_foreignobject_container"><span class="ltx_foreignobject_content"><math id="S4.F4.sf1.pic1.m16" class="ltx_Math" alttext="0.47" display="inline" intent=":literal"><semantics><mn>0.47</mn><annotation encoding="application/x-tex">0.47</annotation></semantics></math></span></span></foreignobject></g><g style="--ltx-stroke-color:#000000;--ltx-fill-color:#000000;" fill="#000000" stroke="#000000" transform="matrix(1.0 0.0 0.0 1.0 -81.61 426.86)"><foreignobject style="--ltx-fo-width:1.94em;--ltx-fo-height:0.64em;--ltx-fo-depth:0em;font-size:10pt;" height="8.92" overflow="visible" transform="matrix(1 0 0 -1 0 8.92)" width="26.91"><span class="ltx_foreignobject_container"><span class="ltx_foreignobject_content"><math id="S4.F4.sf1.pic1.m17" class="ltx_Math" alttext="0.47" display="inline" intent=":literal"><semantics><mn>0.47</mn><annotation encoding="application/x-tex">0.47</annotation></semantics></math></span></span></foreignobject></g><clippath id="pgfcp10"><path d="M -49.81 -40.65 L 547.92 -40.65 L 547.92 447.09 L -49.81 447.09 Z" /></clippath><g clip-path="url(#pgfcp10)"><g style="--ltx-stroke-color:#0000FF;--ltx-fill-color:#0000FF;--ltx-fg-color:#0000FF;" color="#0000FF" fill="#0000FF" stroke="#0000FF" stroke-width="0.8pt"><path style="fill:none" d="M 0 265.43 L 124.53 348.38 L 249.05 348.38 L 373.58 240.55 L 498.1 0" /></g><g></g><g style="--ltx-stroke-color:#FF0000;--ltx-fill-color:#FF0000;--ltx-fg-color:#FF0000;" color="#FF0000" fill="#FF0000" stroke="#FF0000" stroke-width="0.8pt"><path style="fill:none" d="M 0 290.31 L 124.53 406.44 L 249.05 398.14 L 373.58 364.97 L 498.1 248.84" /></g><g></g></g><g style="--ltx-stroke-color:#0000FF;--ltx-fill-color:#0000FF;--ltx-fg-color:#0000FF;" color="#0000FF" fill="#0000FF" stroke="#0000FF" stroke-dasharray="none" stroke-dashoffset="0.0pt" stroke-width="0.8pt"><path style="fill:none" d="M 2.77 265.43 C 2.77 266.96 1.53 268.2 0 268.2 C -1.53 268.2 -2.77 266.96 -2.77 265.43 C -2.77 263.9 -1.53 262.66 0 262.66 C 1.53 262.66 2.77 263.9 2.77 265.43 Z M 0 265.43" /><path style="fill:none" d="M 127.29 348.38 C 127.29 349.91 126.05 351.14 124.53 351.14 C 123 351.14 121.76 349.91 121.76 348.38 C 121.76 346.85 123 345.61 124.53 345.61 C 126.05 345.61 127.29 346.85 127.29 348.38 Z M 124.53 348.38" /><path style="fill:none" d="M 251.82 348.38 C 251.82 349.91 250.58 351.14 249.05 351.14 C 247.52 351.14 246.28 349.91 246.28 348.38 C 246.28 346.85 247.52 345.61 249.05 345.61 C 250.58 345.61 251.82 346.85 251.82 348.38 Z M 249.05 348.38" /><path style="fill:none" d="M 376.34 240.55 C 376.34 242.07 375.11 243.31 373.58 243.31 C 372.05 243.31 370.81 242.07 370.81 240.55 C 370.81 239.02 372.05 237.78 373.58 237.78 C 375.11 237.78 376.34 239.02 376.34 240.55 Z M 373.58 240.55" /><path style="fill:none" d="M 500.87 0 C 500.87 1.53 499.63 2.77 498.1 2.77 C 496.57 2.77 495.34 1.53 495.34 0 C 495.34 -1.53 496.57 -2.77 498.1 -2.77 C 499.63 -2.77 500.87 -1.53 500.87 0 Z M 498.1 0" /></g><g style="--ltx-stroke-color:#FF0000;--ltx-fill-color:#FF0000;--ltx-fg-color:#FF0000;" color="#FF0000" fill="#FF0000" stroke="#FF0000" stroke-dasharray="none" stroke-dashoffset="0.0pt" stroke-width="0.8pt"><path style="fill:none" d="M 2.77 290.31 C 2.77 291.84 1.53 293.08 0 293.08 C -1.53 293.08 -2.77 291.84 -2.77 290.31 C -2.77 288.79 -1.53 287.55 0 287.55 C 1.53 287.55 2.77 288.79 2.77 290.31 Z M 0 290.31" /><path style="fill:none" d="M 127.29 406.44 C 127.29 407.97 126.05 409.21 124.53 409.21 C 123 409.21 121.76 407.97 121.76 406.44 C 121.76 404.91 123 403.67 124.53 403.67 C 126.05 403.67 127.29 404.91 127.29 406.44 Z M 124.53 406.44" /><path style="fill:none" d="M 251.82 398.14 C 251.82 399.67 250.58 400.91 249.05 400.91 C 247.52 400.91 246.28 399.67 246.28 398.14 C 246.28 396.62 247.52 395.38 249.05 395.38 C 250.58 395.38 251.82 396.62 251.82 398.14 Z M 249.05 398.14" /><path style="fill:none" d="M 376.34 364.97 C 376.34 366.49 375.11 367.73 373.58 367.73 C 372.05 367.73 370.81 366.49 370.81 364.97 C 370.81 363.44 372.05 362.2 373.58 362.2 C 375.11 362.2 376.34 363.44 376.34 364.97 Z M 373.58 364.97" /><path style="fill:none" d="M 500.87 248.84 C 500.87 250.37 499.63 251.61 498.1 251.61 C 496.57 251.61 495.34 250.37 495.34 248.84 C 495.34 247.31 496.57 246.07 498.1 246.07 C 499.63 246.07 500.87 247.31 500.87 248.84 Z M 498.1 248.84" /></g><g style="--ltx-stroke-color:#000000;--ltx-fill-color:#000000;" fill="#000000" stroke="#000000" transform="matrix(1.0 0.0 0.0 1.0 222.7 -73.41)"><foreignobject style="--ltx-fo-width:3.81em;--ltx-fo-height:0.68em;--ltx-fo-depth:0em;font-size:10pt;" height="9.46" overflow="visible" transform="matrix(1 0 0 -1 0 9.46)" width="52.7"><span class="ltx_foreignobject_container"><span class="ltx_foreignobject_content"><span id="S4.F4.sf1.pic1.1" class="ltx_text">Iteration</span></span></span></foreignobject></g></g></g></g></svg>