<svg id="S1.F1.pic1" class="ltx_picture" height="267.28" overflow="visible" version="1.1" viewbox="0 0 777.21 267.28" width="777.21"><g style="--ltx-stroke-color:#000000;--ltx-fill-color:#000000;" fill="#000000" stroke="#000000" transform="translate(0,267.28) matrix(1 0 0 -1 0 0) translate(54.94,0) translate(0,75.14)"><g stroke-width="0.4pt"><g style="--ltx-stroke-color:#004040;--ltx-fill-color:#FAFCFC;" fill="#FAFCFC" stroke="#004040" stroke-dasharray="3.0pt,3.0pt" stroke-dashoffset="0.0pt"><path d="M 699.91 171.29 L -12.9 171.29 C -17.48 171.29 -21.2 167.58 -21.2 162.99 L -21.2 96.85 C -21.2 92.27 -17.48 88.55 -12.9 88.55 L 699.91 88.55 C 704.49 88.55 708.21 92.27 708.21 96.85 L 708.21 162.99 C 708.21 167.58 704.49 171.29 699.91 171.29 Z M -21.2 88.55" /></g><g style="--ltx-stroke-color:#000000;--ltx-fill-color:#000000;" fill="#000000" stroke="#000000" stroke-dasharray="3.0pt,3.0pt" stroke-dashoffset="0.0pt" transform="matrix(1.0 0.0 0.0 1.0 -7.36 129.92)"><foreignobject style="--ltx-fo-width:54.83em;--ltx-fo-height:0em;--ltx-fo-depth:0em;font-size:10pt;" height="0" overflow="visible" transform="matrix(1 0 0 -1 0 0)" width="758.69"><span class="ltx_foreignobject_container"><span class="ltx_foreignobject_content">
<span id="S1.F1.pic1.1" class="ltx_inline-block ltx_minipage ltx_align_top" style="width:54.83em;">
<span id="S1.F1.pic1.1.1" class="ltx_p"></span>
</span></span></span></foreignobject></g><g style="--ltx-stroke-color:#005959;--ltx-fill-color:#005959;" fill="#005959" stroke="#005959" transform="matrix(1.0 0.0 0.0 1.0 97.49 178.88)"><foreignobject style="--ltx-fo-width:33.42em;--ltx-fo-height:0.59em;--ltx-fo-depth:0.16em;font-size:10.65pt;" height="11.07" overflow="visible" transform="matrix(1 0 0 -1 0 8.65)" width="492.44"><span class="ltx_foreignobject_container"><span class="ltx_foreignobject_content"><span id="S1.F1.pic1.2" class="ltx_text ltx_font_bold" style="font-size:90%;--ltx-fg-color:#005959;">Stage 1: Offline Group Deviation Estimation &amp; Operating-Point Calibration</span></span></span></foreignobject></g><g style="--ltx-stroke-color:#000080;--ltx-fill-color:#FAFAFF;" fill="#FAFAFF" stroke="#000080" stroke-dasharray="3.0pt,3.0pt" stroke-dashoffset="0.0pt"><path d="M 713.69 53.73 L -46.36 53.73 C -50.95 53.73 -54.67 50.01 -54.67 45.43 L -54.67 -45.43 C -54.67 -50.01 -50.95 -53.73 -46.36 -53.73 L 713.69 -53.73 C 718.27 -53.73 721.99 -50.01 721.99 -45.43 L 721.99 45.43 C 721.99 50.01 718.27 53.73 713.69 53.73 Z M -54.67 -53.73" /></g><g style="--ltx-stroke-color:#000000;--ltx-fill-color:#000000;" fill="#000000" stroke="#000000" stroke-dasharray="3.0pt,3.0pt" stroke-dashoffset="0.0pt" transform="matrix(1.0 0.0 0.0 1.0 -40.83 0)"><foreignobject style="--ltx-fo-width:58.52em;--ltx-fo-height:0em;--ltx-fo-depth:0em;font-size:10pt;" height="0" overflow="visible" transform="matrix(1 0 0 -1 0 0)" width="809.75"><span class="ltx_foreignobject_container"><span class="ltx_foreignobject_content">
<span id="S1.F1.pic1.3" class="ltx_inline-block ltx_minipage ltx_align_top" style="width:58.52em;">
<span id="S1.F1.pic1.3.1" class="ltx_p"></span>
</span></span></span></foreignobject></g><g style="--ltx-stroke-color:#0000B3;--ltx-fill-color:#0000B3;" fill="#0000B3" stroke="#0000B3" transform="matrix(1.0 0.0 0.0 1.0 147.71 61.32)"><foreignobject style="--ltx-fo-width:25.4em;--ltx-fo-height:0.59em;--ltx-fo-depth:0.16em;font-size:10.65pt;" height="11.07" overflow="visible" transform="matrix(1 0 0 -1 0 8.65)" width="374.36"><span class="ltx_foreignobject_container"><span class="ltx_foreignobject_content"><span id="S1.F1.pic1.4" class="ltx_text ltx_font_bold" style="font-size:90%;--ltx-fg-color:#0000B3;">Stage 2: Inference-Time Conditional Feature Intervention</span></span></span></foreignobject></g></g><g stroke-width="0.8pt"><g style="--ltx-stroke-color:#36B3B3;--ltx-fill-color:#EBFFFF;" fill="#EBFFFF" stroke="#36B3B3"><path d="M 89.27 153.54 L -2.66 153.54 C -4.95 153.54 -6.81 151.68 -6.81 149.39 L -6.81 110.45 C -6.81 108.16 -4.95 106.3 -2.66 106.3 L 89.27 106.3 C 91.57 106.3 93.43 108.16 93.43 110.45 L 93.43 149.39 C 93.43 151.68 91.57 153.54 89.27 153.54 Z M -6.81 106.3" /></g><g style="--ltx-stroke-color:#000000;--ltx-fill-color:#000000;" fill="#000000" stroke="#000000" transform="matrix(1.0 0.0 0.0 1.0 -1.97 135.63)"><foreignobject style="--ltx-fo-width:7.07em;--ltx-fo-height:0.63em;--ltx-fo-depth:1.45em;font-size:10pt;" height="28.71" overflow="visible" transform="matrix(1 0 0 -1 0 8.65)" width="97.83"><span class="ltx_foreignobject_container"><span class="ltx_foreignobject_content">
<span id="S1.F1.pic1.5" class="ltx_inline-block ltx_minipage ltx_align_top" style="width:7.07em;">
<span id="S1.F1.pic1.5.1" class="ltx_p"></span>
<span id="S1.F1.pic1.5.2" class="ltx_p"><span id="S1.F1.pic1.5.2.1" class="ltx_text ltx_font_sansserif ltx_font_bold" style="font-size:90%;">Paired Anchors</span></span>
<span id="S1.F1.pic1.5.3" class="ltx_p"><math id="S1.F1.pic1.m1" class="ltx_Math" alttext="\mathcal{A}_{N}=\{(x_{j}^{F},x_{j}^{M},c_{j})\}" display="inline" intent=":literal"><semantics><mrow><msub><mi class="ltx_font_mathcaligraphic" mathsize="0.900em">𝒜</mi><mi mathsize="0.900em">N</mi></msub><mo mathsize="0.900em">=</mo><mrow><mo maxsize="0.800em" minsize="0.800em">{</mo><mrow><mo maxsize="0.900em" minsize="0.900em">(</mo><msubsup><mi mathsize="0.900em">x</mi><mi mathsize="0.900em">j</mi><mi mathsize="0.900em">F</mi></msubsup><mo mathsize="0.900em">,</mo><msubsup><mi mathsize="0.900em">x</mi><mi mathsize="0.900em">j</mi><mi mathsize="0.900em">M</mi></msubsup><mo mathsize="0.900em">,</mo><msub><mi mathsize="0.900em">c</mi><mi mathsize="0.900em">j</mi></msub><mo maxsize="0.900em" minsize="0.900em">)</mo></mrow><mo maxsize="0.800em" minsize="0.800em">}</mo></mrow></mrow><annotation encoding="application/x-tex">\mathcal{A}_{N}=\{(x_{j}^{F},x_{j}^{M},c_{j})\}</annotation></semantics></math></span>
</span></span></span></foreignobject></g><g style="--ltx-stroke-color:#005959;--ltx-fill-color:#EBF5F5;" fill="#EBF5F5" stroke="#005959"><path d="M 229.04 153.54 L 141.04 153.54 C 138.75 153.54 136.89 151.68 136.89 149.39 L 136.89 110.45 C 136.89 108.16 138.75 106.3 141.04 106.3 L 229.04 106.3 C 231.33 106.3 233.19 108.16 233.19 110.45 L 233.19 149.39 C 233.19 151.68 231.33 153.54 229.04 153.54 Z M 136.89 106.3" /></g><g style="--ltx-stroke-color:#000000;--ltx-fill-color:#000000;" fill="#000000" stroke="#000000" transform="matrix(1.0 0.0 0.0 1.0 141.73 133.9)"><foreignobject style="--ltx-fo-width:6.77em;--ltx-fo-height:0.63em;--ltx-fo-depth:1.2em;font-size:10pt;" height="25.25" overflow="visible" transform="matrix(1 0 0 -1 0 8.65)" width="93.68"><span class="ltx_foreignobject_container"><span class="ltx_foreignobject_content">
<span id="S1.F1.pic1.6" class="ltx_inline-block ltx_minipage ltx_align_top" style="width:6.77em;">
<span id="S1.F1.pic1.6.1" class="ltx_p"></span>
<span id="S1.F1.pic1.6.2" class="ltx_p"><span id="S1.F1.pic1.6.2.1" class="ltx_text ltx_font_sansserif ltx_font_bold" style="font-size:90%;">Frozen Text</span></span>
<span id="S1.F1.pic1.6.3" class="ltx_p"><span id="S1.F1.pic1.6.3.1" class="ltx_text ltx_font_sansserif" style="font-size:90%;">Encoder <math id="S1.F1.pic1.m2" class="ltx_Math" alttext="E" display="inline" intent=":literal"><semantics><mi>E</mi><annotation encoding="application/x-tex">E</annotation></semantics></math></span></span>
</span></span></span></foreignobject></g><g style="--ltx-stroke-color:#595959;--ltx-fill-color:#F5F5F5;" fill="#F5F5F5" stroke="#595959"><path d="M 384.55 156.9 L 284.74 156.9 C 282.45 156.9 280.59 155.05 280.59 152.75 L 280.59 107.09 C 280.59 104.8 282.45 102.94 284.74 102.94 L 384.55 102.94 C 386.84 102.94 388.7 104.8 388.7 107.09 L 388.7 152.75 C 388.7 155.05 386.84 156.9 384.55 156.9 Z M 280.59 102.94" /></g><g style="--ltx-stroke-color:#000000;--ltx-fill-color:#000000;" fill="#000000" stroke="#000000" transform="matrix(1.0 0.0 0.0 1.0 285.43 143.41)"><foreignobject style="--ltx-fo-width:7.69em;--ltx-fo-height:0.63em;--ltx-fo-depth:2.58em;font-size:10pt;" height="44.28" overflow="visible" transform="matrix(1 0 0 -1 0 8.65)" width="106.41"><span class="ltx_foreignobject_container"><span class="ltx_foreignobject_content">
<span id="S1.F1.pic1.7" class="ltx_inline-block ltx_minipage ltx_align_top" style="width:7.69em;">
<span id="S1.F1.pic1.7.1" class="ltx_p"></span>
<span id="S1.F1.pic1.7.2" class="ltx_p"><span id="S1.F1.pic1.7.2.1" class="ltx_text ltx_font_sansserif ltx_font_bold" style="font-size:90%;">Deviation Vector</span></span>
<span id="S1.F1.pic1.7.3" class="ltx_p"><math id="S1.F1.pic1.m3" class="ltx_Math" alttext="\mathbf{d}" display="inline" intent=":literal"><semantics><mi mathsize="0.900em">𝐝</mi><annotation encoding="application/x-tex">\mathbf{d}</annotation></semantics></math><span id="S1.F1.pic1.7.3.1" class="ltx_text ltx_font_sansserif" style="font-size:90%;"> via Eq. (<a href="#S2.E2" title="In 2.1 Group Deviation Estimation ‣ 2 Method ‣ Training-Free Instruction TTS Gender Bias Calibration Using Model-Adaptive Steering" class="ltx_ref"><span class="ltx_text ltx_ref_tag">2</span></a>)</span></span>
</span></span></span></foreignobject></g><g style="--ltx-stroke-color:#005959;--ltx-fill-color:#E0F0F0;" fill="#E0F0F0" stroke="#005959" stroke-width="1.0pt"><path d="M 536.13 162.37 L 432.38 162.37 C 430.09 162.37 428.23 160.51 428.23 158.22 L 428.23 101.62 C 428.23 99.33 430.09 97.47 432.38 97.47 L 536.13 97.47 C 538.42 97.47 540.28 99.33 540.28 101.62 L 540.28 158.22 C 540.28 160.51 538.42 162.37 536.13 162.37 Z M 428.23 97.47" /></g><g style="--ltx-stroke-color:#000000;--ltx-fill-color:#000000;" fill="#000000" stroke="#000000" stroke-width="1.0pt" transform="matrix(1.0 0.0 0.0 1.0 433.07 148.88)"><foreignobject style="--ltx-fo-width:8em;--ltx-fo-height:0.63em;--ltx-fo-depth:3.37em;font-size:10pt;" height="55.21" overflow="visible" transform="matrix(1 0 0 -1 0 8.65)" width="110.7"><span class="ltx_foreignobject_container"><span class="ltx_foreignobject_content">
<span id="S1.F1.pic1.8" class="ltx_inline-block ltx_minipage ltx_align_top" style="width:8em;">
<span id="S1.F1.pic1.8.1" class="ltx_p"></span>
<span id="S1.F1.pic1.8.2" class="ltx_p"><span id="S1.F1.pic1.8.2.1" class="ltx_text ltx_font_sansserif ltx_font_bold" style="font-size:90%;">Coarse-to-Fine Search</span></span>
<span id="S1.F1.pic1.8.3" class="ltx_p"><span id="S1.F1.pic1.8.3.1" class="ltx_text ltx_font_sansserif" style="font-size:90%;">on <math id="S1.F1.pic1.m4" class="ltx_Math" alttext="\mathcal{D}_{\text{dev}}" display="inline" intent=":literal"><semantics><msub><mi class="ltx_font_mathcaligraphic">𝒟</mi><mtext class="ltx_mathvariant_sans-serif">dev</mtext></msub><annotation encoding="application/x-tex">\mathcal{D}_{\text{dev}}</annotation></semantics></math> (<span id="S1.F1.pic1.8.3.1.1" class="ltx_text ltx_font_bold">Sec. <a href="#S2.SS2" title="2.2 Coarse-to-Fine Steering Strength Search ‣ 2 Method ‣ Training-Free Instruction TTS Gender Bias Calibration Using Model-Adaptive Steering" class="ltx_ref"><span class="ltx_text ltx_ref_tag">2.2</span></a></span>)</span></span>
</span></span></span></foreignobject></g><g style="--ltx-stroke-color:#006C6C;--ltx-fill-color:#CCE6E6;" fill="#CCE6E6" stroke="#006C6C"><path d="M 689.67 156.9 L 585.92 156.9 C 583.63 156.9 581.77 155.05 581.77 152.75 L 581.77 107.09 C 581.77 104.8 583.63 102.94 585.92 102.94 L 689.67 102.94 C 691.96 102.94 693.82 104.8 693.82 107.09 L 693.82 152.75 C 693.82 155.05 691.96 156.9 689.67 156.9 Z M 581.77 102.94" /></g><g style="--ltx-stroke-color:#000000;--ltx-fill-color:#000000;" fill="#000000" stroke="#000000" transform="matrix(1.0 0.0 0.0 1.0 586.61 143.41)"><foreignobject style="--ltx-fo-width:10.57em;--ltx-fo-height:0.63em;--ltx-fo-depth:2.58em;font-size:10pt;" height="44.28" overflow="visible" transform="matrix(1 0 0 -1 0 8.65)" width="146.26"><span class="ltx_foreignobject_container"><span class="ltx_foreignobject_content">
<span id="S1.F1.pic1.9" class="ltx_inline-block ltx_minipage ltx_align_top" style="width:10.57em;">
<span id="S1.F1.pic1.9.1" class="ltx_p"></span>
<span id="S1.F1.pic1.9.2" class="ltx_p"><span id="S1.F1.pic1.9.2.1" class="ltx_text ltx_font_sansserif ltx_font_bold" style="font-size:90%;">Operating Point</span></span>
<span id="S1.F1.pic1.9.3" class="ltx_p"><math id="S1.F1.pic1.m5" class="ltx_Math" alttext="\theta^{*},\mathbf{d}" display="inline" intent=":literal"><semantics><mrow><msup><mi mathsize="0.900em">θ</mi><mo mathsize="0.900em">∗</mo></msup><mo mathsize="0.900em">,</mo><mi mathsize="0.900em">𝐝</mi></mrow><annotation encoding="application/x-tex">\theta^{*},\mathbf{d}</annotation></semantics></math></span>
<span id="S1.F1.pic1.9.4" class="ltx_p"><span id="S1.F1.pic1.9.4.1" class="ltx_text ltx_font_sansserif" style="font-size:70%;">(e.g., <math id="S1.F1.pic1.m6" class="ltx_Math" alttext="\alpha^{*}" display="inline" intent=":literal"><semantics><msup><mi>α</mi><mo>∗</mo></msup><annotation encoding="application/x-tex">\alpha^{*}</annotation></semantics></math> or <math id="S1.F1.pic1.m7" class="ltx_Math" alttext="\alpha_{\text{AR}}^{*},\alpha_{\text{NAR}}^{*}" display="inline" intent=":literal"><semantics><mrow><msubsup><mi>α</mi><mtext class="ltx_mathvariant_sans-serif">AR</mtext><mo>∗</mo></msubsup><mo>,</mo><msubsup><mi>α</mi><mtext class="ltx_mathvariant_sans-serif">NAR</mtext><mo>∗</mo></msubsup></mrow><annotation encoding="application/x-tex">\alpha_{\text{AR}}^{*},\alpha_{\text{NAR}}^{*}</annotation></semantics></math>)</span></span>
</span></span></span></foreignobject></g><path style="fill:none" d="M 93.98 129.92 L 130.37 129.92" /><g stroke-dasharray="none" stroke-dashoffset="0.0pt" stroke-linejoin="miter" transform="matrix(1.0 0.0 0.0 1.0 127.2 129.92)"><path d="M 7.66 0 L 1.79 2.18 L 3.45 0 L 1.79 -2.18 Z" /></g><path style="fill:none" d="M 233.74 129.92 L 274.08 129.92" /><g stroke-dasharray="none" stroke-dashoffset="0.0pt" stroke-linejoin="miter" transform="matrix(1.0 0.0 0.0 1.0 270.9 129.92)"><path d="M 7.66 0 L 1.79 2.18 L 3.45 0 L 1.79 -2.18 Z" /></g><g style="--ltx-stroke-color:#000000;--ltx-fill-color:#000000;" fill="#000000" stroke="#000000" transform="matrix(1.0 0.0 0.0 1.0 238.44 137.79)"><foreignobject style="--ltx-fo-width:3.25em;--ltx-fo-height:0.82em;--ltx-fo-depth:0.24em;font-size:8.19pt;" height="11.96" overflow="visible" transform="matrix(1 0 0 -1 0 9.26)" width="36.9"><span class="ltx_foreignobject_container"><span class="ltx_foreignobject_content"><math id="S1.F1.pic1.m8" class="ltx_Math" alttext="\mathbf{z}(x_{j}^{M/F})" display="inline" intent=":literal"><semantics><mrow><mi mathsize="0.700em">𝐳</mi><mo>⁡</mo><mrow><mo maxsize="0.700em" minsize="0.700em">(</mo><msubsup><mi mathsize="0.700em">x</mi><mi mathsize="0.700em">j</mi><mrow><mi mathsize="0.700em">M</mi><mo maxsize="0.700em" minsize="0.700em" stretchy="true" symmetric="true">/</mo><mi mathsize="0.700em">F</mi></mrow></msubsup><mo maxsize="0.700em" minsize="0.700em">)</mo></mrow></mrow><annotation encoding="application/x-tex">\mathbf{z}(x_{j}^{M/F})</annotation></semantics></math></span></span></foreignobject></g><path style="fill:none" d="M 389.25 129.92 L 421.57 129.92" /><g stroke-dasharray="none" stroke-dashoffset="0.0pt" stroke-linejoin="miter" transform="matrix(1.0 0.0 0.0 1.0 418.4 129.92)"><path d="M 7.66 0 L 1.79 2.18 L 3.45 0 L 1.79 -2.18 Z" /></g><g style="--ltx-stroke-color:#000000;--ltx-fill-color:#000000;" fill="#000000" stroke="#000000" transform="matrix(1.0 0.0 0.0 1.0 404.92 135.09)"><foreignobject style="--ltx-fo-width:0.61em;--ltx-fo-height:0.59em;--ltx-fo-depth:0em;font-size:8.19pt;" height="6.73" overflow="visible" transform="matrix(1 0 0 -1 0 6.73)" width="6.96"><span class="ltx_foreignobject_container"><span class="ltx_foreignobject_content"><math id="S1.F1.pic1.m9" class="ltx_Math" alttext="\mathbf{d}" display="inline" intent=":literal"><semantics><mi mathsize="0.700em">𝐝</mi><annotation encoding="application/x-tex">\mathbf{d}</annotation></semantics></math></span></span></foreignobject></g><path style="fill:none" d="M 540.97 129.92 L 575.26 129.92" /><g stroke-dasharray="none" stroke-dashoffset="0.0pt" stroke-linejoin="miter" transform="matrix(1.0 0.0 0.0 1.0 572.09 129.92)"><path d="M 7.66 0 L 1.79 2.18 L 3.45 0 L 1.79 -2.18 Z" /></g><g style="--ltx-stroke-color:#36B3B3;--ltx-fill-color:#EBFFFF;" fill="#EBFFFF" stroke="#36B3B3"><path d="M 36.12 20.67 L -36.12 20.67 C -38.42 20.67 -40.28 18.81 -40.28 16.52 L -40.28 -16.52 C -40.28 -18.81 -38.42 -20.67 -36.12 -20.67 L 36.12 -20.67 C 38.42 -20.67 40.28 -18.81 40.28 -16.52 L 40.28 16.52 C 40.28 18.81 38.42 20.67 36.12 20.67 Z M -40.28 -20.67" /></g><g style="--ltx-stroke-color:#000000;--ltx-fill-color:#000000;" fill="#000000" stroke="#000000" transform="matrix(1.0 0.0 0.0 1.0 -35.43 4.55)"><foreignobject style="--ltx-fo-width:5.54em;--ltx-fo-height:0.63em;--ltx-fo-depth:1.28em;font-size:10pt;" height="26.41" overflow="visible" transform="matrix(1 0 0 -1 0 8.65)" width="76.66"><span class="ltx_foreignobject_container"><span class="ltx_foreignobject_content">
<span id="S1.F1.pic1.10" class="ltx_inline-block ltx_minipage ltx_align_top" style="width:5.54em;">
<span id="S1.F1.pic1.10.1" class="ltx_p"></span>
<span id="S1.F1.pic1.10.2" class="ltx_p"><span id="S1.F1.pic1.10.2.1" class="ltx_text ltx_font_sansserif ltx_font_bold" style="font-size:90%;">Prompt <math id="S1.F1.pic1.m10" class="ltx_Math" alttext="x" display="inline" intent=":literal"><semantics><mi>x</mi><annotation encoding="application/x-tex">x</annotation></semantics></math></span></span>
<span id="S1.F1.pic1.10.3" class="ltx_p"><span id="S1.F1.pic1.10.3.1" class="ltx_text ltx_font_sansserif" style="font-size:90%;">+ Text <math id="S1.F1.pic1.m11" class="ltx_Math" alttext="c" display="inline" intent=":literal"><semantics><mi>c</mi><annotation encoding="application/x-tex">c</annotation></semantics></math></span></span>
</span></span></span></foreignobject></g><g style="--ltx-stroke-color:#005959;--ltx-fill-color:#EBF5F5;" fill="#EBF5F5" stroke="#005959"><path d="M 144.39 20.67 L 68.21 20.67 C 65.91 20.67 64.05 18.81 64.05 16.52 L 64.05 -16.52 C 64.05 -18.81 65.91 -20.67 68.21 -20.67 L 144.39 -20.67 C 146.69 -20.67 148.54 -18.81 148.54 -16.52 L 148.54 16.52 C 148.54 18.81 146.69 20.67 144.39 20.67 Z M 64.05 -20.67" /></g><g style="--ltx-stroke-color:#000000;--ltx-fill-color:#000000;" fill="#000000" stroke="#000000" transform="matrix(1.0 0.0 0.0 1.0 68.9 3.98)"><foreignobject style="--ltx-fo-width:5.85em;--ltx-fo-height:0.63em;--ltx-fo-depth:1.2em;font-size:10pt;" height="25.25" overflow="visible" transform="matrix(1 0 0 -1 0 8.65)" width="80.95"><span class="ltx_foreignobject_container"><span class="ltx_foreignobject_content">
<span id="S1.F1.pic1.11" class="ltx_inline-block ltx_minipage ltx_align_top" style="width:5.85em;">
<span id="S1.F1.pic1.11.1" class="ltx_p"></span>
<span id="S1.F1.pic1.11.2" class="ltx_p"><span id="S1.F1.pic1.11.2.1" class="ltx_text ltx_font_sansserif ltx_font_bold" style="font-size:90%;">Frozen Text</span></span>
<span id="S1.F1.pic1.11.3" class="ltx_p"><span id="S1.F1.pic1.11.3.1" class="ltx_text ltx_font_sansserif" style="font-size:90%;">Encoder <math id="S1.F1.pic1.m12" class="ltx_Math" alttext="E" display="inline" intent=":literal"><semantics><mi>E</mi><annotation encoding="application/x-tex">E</annotation></semantics></math></span></span>
</span></span></span></foreignobject></g><g style="--ltx-stroke-color:#D9A300;--ltx-fill-color:#FFF5D9;" fill="#FFF5D9" stroke="#D9A300"><path d="M 238.08 22.88 L 179.24 22.88 C 175.42 22.88 172.32 19.78 172.32 15.96 L 172.32 -15.96 C 172.32 -19.78 175.42 -22.88 179.24 -22.88 L 238.08 -22.88 C 241.9 -22.88 245 -19.78 245 -15.96 L 245 15.96 C 245 19.78 241.9 22.88 238.08 22.88 Z M 172.32 -22.88" /></g><g style="--ltx-stroke-color:#000000;--ltx-fill-color:#000000;" fill="#000000" stroke="#000000" transform="matrix(1.0 0.0 0.0 1.0 177.17 9.38)"><foreignobject style="--ltx-fo-width:6.5em;--ltx-fo-height:0.63em;--ltx-fo-depth:1.98em;font-size:10pt;" height="36.07" overflow="visible" transform="matrix(1 0 0 -1 0 8.65)" width="89.94"><span class="ltx_foreignobject_container"><span class="ltx_foreignobject_content">
<span id="S1.F1.pic1.12" class="ltx_inline-block ltx_minipage ltx_align_top" style="width:6.5em;">
<span id="S1.F1.pic1.12.1" class="ltx_p"></span>
<span id="S1.F1.pic1.12.2" class="ltx_p"><span id="S1.F1.pic1.12.2.1" class="ltx_text ltx_font_sansserif ltx_font_bold" style="font-size:90%;">Lexical Gate</span></span>
<span id="S1.F1.pic1.12.3" class="ltx_p"><math id="S1.F1.pic1.m13" class="ltx_Math" alttext="w\in\mathcal{V}_{\text{gender}}" display="inline" intent=":literal"><semantics><mrow><mi mathsize="0.700em">w</mi><mo mathsize="0.700em">∈</mo><msub><mi class="ltx_font_mathcaligraphic" mathsize="0.700em">𝒱</mi><mtext class="ltx_mathvariant_sans-serif" mathsize="0.700em">gender</mtext></msub></mrow><annotation encoding="application/x-tex">w\in\mathcal{V}_{\text{gender}}</annotation></semantics></math><span id="S1.F1.pic1.12.3.1" class="ltx_text ltx_font_sansserif" style="font-size:70%;">?</span></span>
</span></span></span></foreignobject></g><g style="--ltx-stroke-color:#CC6600;--ltx-fill-color:#FFF0E0;" fill="#FFF0E0" stroke="#CC6600" stroke-width="1.1pt"><path d="M 372.74 22.96 L 272.93 22.96 C 270.64 22.96 268.78 21.1 268.78 18.81 L 268.78 -18.81 C 268.78 -21.1 270.64 -22.96 272.93 -22.96 L 372.74 -22.96 C 375.03 -22.96 376.89 -21.1 376.89 -18.81 L 376.89 18.81 C 376.89 21.1 375.03 22.96 372.74 22.96 Z M 268.78 -22.96" /></g><g style="--ltx-stroke-color:#000000;--ltx-fill-color:#000000;" fill="#000000" stroke="#000000" stroke-width="1.1pt" transform="matrix(1.0 0.0 0.0 1.0 273.62 9.47)"><foreignobject style="--ltx-fo-width:8.36em;--ltx-fo-height:0.63em;--ltx-fo-depth:1.99em;font-size:10pt;" height="36.23" overflow="visible" transform="matrix(1 0 0 -1 0 8.65)" width="115.68"><span class="ltx_foreignobject_container"><span class="ltx_foreignobject_content">
<span id="S1.F1.pic1.13" class="ltx_inline-block ltx_minipage ltx_align_top" style="width:8.36em;">
<span id="S1.F1.pic1.13.1" class="ltx_p"></span>
<span id="S1.F1.pic1.13.2" class="ltx_p"><span id="S1.F1.pic1.13.2.1" class="ltx_text ltx_font_sansserif ltx_font_bold" style="font-size:90%;">Conditioning Interface</span></span>
<span id="S1.F1.pic1.13.3" class="ltx_p"><math id="S1.F1.pic1.m14" class="ltx_Math" alttext="\mathbf{h}^{\prime}_{t}=\mathbf{h}_{t}+a_{t}\cdot\alpha^{*}\mathbf{d}" display="inline" intent=":literal"><semantics><mrow><msubsup><mi mathsize="0.800em">𝐡</mi><mi mathsize="0.800em">t</mi><mo mathsize="0.800em">′</mo></msubsup><mo mathsize="0.800em">=</mo><mrow><msub><mi mathsize="0.800em">𝐡</mi><mi mathsize="0.800em">t</mi></msub><mo mathsize="0.800em">+</mo><mrow><mrow><msub><mi mathsize="0.800em">a</mi><mi mathsize="0.800em">t</mi></msub><mo lspace="0.222em" mathsize="0.800em" rspace="0.222em">⋅</mo><msup><mi mathsize="0.800em">α</mi><mo mathsize="0.800em">∗</mo></msup></mrow><mo lspace="0em" rspace="0em">​</mo><mi mathsize="0.800em">𝐝</mi></mrow></mrow></mrow><annotation encoding="application/x-tex">\mathbf{h}^{\prime}_{t}=\mathbf{h}_{t}+a_{t}\cdot\alpha^{*}\mathbf{d}</annotation></semantics></math></span>
</span></span></span></foreignobject></g><g style="--ltx-stroke-color:#005959;--ltx-fill-color:#EBF5F5;" fill="#EBF5F5" stroke="#005959"><path d="M 492.82 23.06 L 412.69 23.06 C 410.4 23.06 408.54 21.2 408.54 18.91 L 408.54 -18.91 C 408.54 -21.2 410.4 -23.06 412.69 -23.06 L 492.82 -23.06 C 495.11 -23.06 496.97 -21.2 496.97 -18.91 L 496.97 18.91 C 496.97 21.2 495.11 23.06 492.82 23.06 Z M 408.54 -23.06" /></g><g style="--ltx-stroke-color:#000000;--ltx-fill-color:#000000;" fill="#000000" stroke="#000000" transform="matrix(1.0 0.0 0.0 1.0 413.39 9.57)"><foreignobject style="--ltx-fo-width:6.15em;--ltx-fo-height:0.63em;--ltx-fo-depth:2.01em;font-size:10pt;" height="36.44" overflow="visible" transform="matrix(1 0 0 -1 0 8.65)" width="85.1"><span class="ltx_foreignobject_container"><span class="ltx_foreignobject_content">
<span id="S1.F1.pic1.14" class="ltx_inline-block ltx_minipage ltx_align_top" style="width:6.15em;">
<span id="S1.F1.pic1.14.1" class="ltx_p"></span>
<span id="S1.F1.pic1.14.2" class="ltx_p"><span id="S1.F1.pic1.14.2.1" class="ltx_text ltx_font_sansserif ltx_font_bold" style="font-size:90%;">Frozen Decoder</span></span>
<span id="S1.F1.pic1.14.3" class="ltx_p"><span id="S1.F1.pic1.14.3.1" class="ltx_text ltx_font_sansserif" style="font-size:90%;">+ Vocoder</span></span>
</span></span></span></foreignobject></g><g style="--ltx-stroke-color:#009900;--ltx-fill-color:#E6FFE6;" fill="#E6FFE6" stroke="#009900"><path d="M 578.45 20.67 L 523.91 20.67 C 521.62 20.67 519.76 18.81 519.76 16.52 L 519.76 -16.52 C 519.76 -18.81 521.62 -20.67 523.91 -20.67 L 578.45 -20.67 C 580.74 -20.67 582.6 -18.81 582.6 -16.52 L 582.6 16.52 C 582.6 18.81 580.74 20.67 578.45 20.67 Z M 519.76 -20.67" /></g><g style="--ltx-stroke-color:#000000;--ltx-fill-color:#000000;" fill="#000000" stroke="#000000" transform="matrix(1.0 0.0 0.0 1.0 524.61 5.19)"><foreignobject style="--ltx-fo-width:4.15em;--ltx-fo-height:0.63em;--ltx-fo-depth:1.38em;font-size:10pt;" height="27.67" overflow="visible" transform="matrix(1 0 0 -1 0 8.65)" width="57.42"><span class="ltx_foreignobject_container"><span class="ltx_foreignobject_content">
<span id="S1.F1.pic1.15" class="ltx_inline-block ltx_minipage ltx_align_top" style="width:4.15em;">
<span id="S1.F1.pic1.15.1" class="ltx_p"></span>
<span id="S1.F1.pic1.15.2" class="ltx_p"><span id="S1.F1.pic1.15.2.1" class="ltx_text ltx_font_sansserif ltx_font_bold" style="font-size:90%;">Speech</span></span>
<span id="S1.F1.pic1.15.3" class="ltx_p"><span id="S1.F1.pic1.15.3.1" class="ltx_text ltx_font_sansserif" style="font-size:90%;">Wave <math id="S1.F1.pic1.m15" class="ltx_Math" alttext="y" display="inline" intent=":literal"><semantics><mi>y</mi><annotation encoding="application/x-tex">y</annotation></semantics></math></span></span>
</span></span></span></foreignobject></g><g style="--ltx-stroke-color:#730026;--ltx-fill-color:#FCF2F5;" fill="#FCF2F5" stroke="#730026" stroke-dasharray="3.0pt,3.0pt" stroke-dashoffset="0.0pt"><path d="M 703.45 39.34 L 619.39 39.34 C 617.09 39.34 615.24 37.48 615.24 35.19 L 615.24 -35.19 C 615.24 -37.48 617.09 -39.34 619.39 -39.34 L 703.45 -39.34 C 705.74 -39.34 707.6 -37.48 707.6 -35.19 L 707.6 35.19 C 707.6 37.48 705.74 39.34 703.45 39.34 Z M 615.24 -39.34" /></g><g style="--ltx-stroke-color:#000000;--ltx-fill-color:#000000;" fill="#000000" stroke="#000000" stroke-dasharray="3.0pt,3.0pt" stroke-dashoffset="0.0pt" transform="matrix(1.0 0.0 0.0 1.0 620.08 25.85)"><foreignobject style="--ltx-fo-width:8.54em;--ltx-fo-height:0.63em;--ltx-fo-depth:4.36em;font-size:10pt;" height="68.99" overflow="visible" transform="matrix(1 0 0 -1 0 8.65)" width="118.17"><span class="ltx_foreignobject_container"><span class="ltx_foreignobject_content">
<span id="S1.F1.pic1.16" class="ltx_inline-block ltx_minipage ltx_align_top" style="width:8.54em;">
<span id="S1.F1.pic1.16.1" class="ltx_p"></span>
<span id="S1.F1.pic1.16.2" class="ltx_p"><span id="S1.F1.pic1.16.2.1" class="ltx_text ltx_font_sansserif ltx_font_bold" style="font-size:90%;">Downstream Eval</span></span>
<span id="S1.F1.pic1.16.3" class="ltx_p"><math id="S1.F1.pic1.m16" class="ltx_Math" alttext="\bullet" display="inline" intent=":literal"><semantics><mo mathsize="0.700em">∙</mo><annotation encoding="application/x-tex">\bullet</annotation></semantics></math><span id="S1.F1.pic1.16.3.1" class="ltx_text ltx_font_sansserif" style="font-size:70%;"> Parity <math id="S1.F1.pic1.m17" class="ltx_Math" alttext="|p_{F}-0.5|" display="inline" intent=":literal"><semantics><mrow><mo stretchy="false">|</mo><mrow><msub><mi>p</mi><mi>F</mi></msub><mo>−</mo><mn>0.5</mn></mrow><mo stretchy="false">|</mo></mrow><annotation encoding="application/x-tex">|p_{F}-0.5|</annotation></semantics></math></span></span>
<span id="S1.F1.pic1.16.4" class="ltx_p"><math id="S1.F1.pic1.m18" class="ltx_Math" alttext="\bullet" display="inline" intent=":literal"><semantics><mo mathsize="0.700em">∙</mo><annotation encoding="application/x-tex">\bullet</annotation></semantics></math><span id="S1.F1.pic1.16.4.1" class="ltx_text ltx_font_sansserif" style="font-size:70%;"> UTMOS</span></span>
<span id="S1.F1.pic1.16.5" class="ltx_p"><math id="S1.F1.pic1.m19" class="ltx_Math" alttext="\bullet" display="inline" intent=":literal"><semantics><mo mathsize="0.700em">∙</mo><annotation encoding="application/x-tex">\bullet</annotation></semantics></math><span id="S1.F1.pic1.16.5.1" class="ltx_text ltx_font_sansserif" style="font-size:70%;"> Whisper WER</span></span>
</span></span></span></foreignobject></g><path style="fill:none" d="M 40.83 0 L 57.54 0" /><g stroke-dasharray="none" stroke-dashoffset="0.0pt" stroke-linejoin="miter" transform="matrix(1.0 0.0 0.0 1.0 54.37 0)"><path d="M 7.66 0 L 1.79 2.18 L 3.45 0 L 1.79 -2.18 Z" /></g><path style="fill:none" d="M 149.1 0 L 165.81 0" /><g stroke-dasharray="none" stroke-dashoffset="0.0pt" stroke-linejoin="miter" transform="matrix(1.0 0.0 0.0 1.0 162.64 0)"><path d="M 7.66 0 L 1.79 2.18 L 3.45 0 L 1.79 -2.18 Z" /></g><g style="--ltx-stroke-color:#000000;--ltx-fill-color:#000000;" fill="#000000" stroke="#000000" transform="matrix(1.0 0.0 0.0 1.0 155.58 5.17)"><foreignobject style="--ltx-fo-width:0.86em;--ltx-fo-height:0.59em;--ltx-fo-depth:0em;font-size:8.19pt;" height="6.65" overflow="visible" transform="matrix(1 0 0 -1 0 6.65)" width="9.71"><span class="ltx_foreignobject_container"><span class="ltx_foreignobject_content"><math id="S1.F1.pic1.m20" class="ltx_Math" alttext="\mathbf{H}" display="inline" intent=":literal"><semantics><mi mathsize="0.700em">𝐇</mi><annotation encoding="application/x-tex">\mathbf{H}</annotation></semantics></math></span></span></foreignobject></g><path style="fill:none" d="M 245.55 0 L 262.06 0" /><g stroke-dasharray="none" stroke-dashoffset="0.0pt" stroke-linejoin="miter" transform="matrix(1.0 0.0 0.0 1.0 258.89 0)"><path d="M 7.66 0 L 1.79 2.18 L 3.45 0 L 1.79 -2.18 Z" /></g><g style="--ltx-stroke-color:#000000;--ltx-fill-color:#000000;" fill="#000000" stroke="#000000" transform="matrix(1.0 0.0 0.0 1.0 249.94 5.17)"><foreignobject style="--ltx-fo-width:1.24em;--ltx-fo-height:0.6em;--ltx-fo-depth:0em;font-size:7.97pt;" height="6.62" overflow="visible" transform="matrix(1 0 0 -1 0 6.62)" width="13.68"><span class="ltx_foreignobject_container"><span class="ltx_foreignobject_content"><span id="S1.F1.pic1.17" class="ltx_text" style="font-size:70%;">No</span></span></span></foreignobject></g><path style="fill:none" d="M 377.65 0 L 402.03 0" /><g stroke-dasharray="none" stroke-dashoffset="0.0pt" stroke-linejoin="miter" transform="matrix(1.0 0.0 0.0 1.0 398.86 0)"><path d="M 7.66 0 L 1.79 2.18 L 3.45 0 L 1.79 -2.18 Z" /></g><g style="--ltx-stroke-color:#000000;--ltx-fill-color:#000000;" fill="#000000" stroke="#000000" transform="matrix(1.0 0.0 0.0 1.0 386.69 5.17)"><foreignobject style="--ltx-fo-width:1.08em;--ltx-fo-height:0.7em;--ltx-fo-depth:0em;font-size:8.19pt;" height="7.94" overflow="visible" transform="matrix(1 0 0 -1 0 7.94)" width="12.26"><span class="ltx_foreignobject_container"><span class="ltx_foreignobject_content"><math id="S1.F1.pic1.m21" class="ltx_Math" alttext="\mathbf{H}^{\prime}" display="inline" intent=":literal"><semantics><msup><mi mathsize="0.700em">𝐇</mi><mo mathsize="0.700em">′</mo></msup><annotation encoding="application/x-tex">\mathbf{H}^{\prime}</annotation></semantics></math></span></span></foreignobject></g><path style="fill:none" d="M 497.52 0 L 513.25 0" /><g stroke-dasharray="none" stroke-dashoffset="0.0pt" stroke-linejoin="miter" transform="matrix(1.0 0.0 0.0 1.0 510.08 0)"><path d="M 7.66 0 L 1.79 2.18 L 3.45 0 L 1.79 -2.18 Z" /></g><g stroke-dasharray="3.0pt,3.0pt" stroke-dashoffset="0.0pt"><path style="fill:none" d="M 583.15 0 L 608.72 0" /></g><g stroke-dasharray="none" stroke-dashoffset="0.0pt" stroke-linejoin="miter" transform="matrix(1.0 0.0 0.0 1.0 605.55 0)"><path d="M 7.66 0 L 1.79 2.18 L 3.45 0 L 1.79 -2.18 Z" /></g></g><g stroke-width="0.8pt"><g style="--ltx-stroke-color:#D96C00;--ltx-fill-color:#D96C00;" fill="#D96C00" stroke="#D96C00"><path style="fill:none" d="M 637.8 102.39 L 637.8 92.54 L 637.8 92.54 L 322.83 92.54 L 322.83 29.68" /><g style="--ltx-fg-color:#D96C00;" color="#D96C00" stroke-dasharray="none" stroke-dashoffset="0.0pt" stroke-linejoin="miter" transform="matrix(0.0 -1.0 1.0 0.0 322.83 32.85)"><path d="M 7.66 0 L 1.79 2.18 L 3.45 0 L 1.79 -2.18 Z" /></g></g><g style="--ltx-stroke-color:#D96C00;--ltx-fill-color:#D96C00;" fill="#D96C00" stroke="#D96C00" transform="matrix(1.0 0.0 0.0 1.0 404.42 99.86)"><foreignobject style="--ltx-fo-width:10.32em;--ltx-fo-height:0.57em;--ltx-fo-depth:0.16em;font-size:9.8pt;" height="9.84" overflow="visible" transform="matrix(1 0 0 -1 0 7.69)" width="139.91"><span class="ltx_foreignobject_container"><span class="ltx_foreignobject_content"><span id="S1.F1.pic1.18" class="ltx_text ltx_font_bold" style="font-size:80%;--ltx-fg-color:#D96C00;">Inject Operating Point <math id="S1.F1.pic1.m22" class="ltx_Math" alttext="\theta^{*}" display="inline" intent=":literal"><semantics><msup><mi style="--ltx-fg-color:#D96C00;" mathcolor="#D96C00">θ</mi><mo style="--ltx-fg-color:#D96C00;" mathcolor="#D96C00">∗</mo></msup><annotation encoding="application/x-tex">\theta^{*}</annotation></semantics></math></span></span></span></foreignobject></g></g><g stroke-dasharray="3.0pt,3.0pt" stroke-dashoffset="0.0pt" stroke-width="0.9pt"><g style="--ltx-stroke-color:#E67300;--ltx-fill-color:#E67300;" fill="#E67300" stroke="#E67300"><path style="fill:none" d="M 208.66 -23.43 L 208.66 -54.92 L 452.76 -54.92 L 452.76 -29.97" /><g style="--ltx-fg-color:#E67300;" color="#E67300" stroke-dasharray="none" stroke-dashoffset="0.0pt" stroke-linejoin="miter" transform="matrix(0.0 1.0 -1.0 0.0 452.76 -33.37)"><path d="M 8.09 0 L 2.01 2.26 L 3.71 0 L 2.01 -2.26 Z" /></g></g><g style="--ltx-stroke-color:#E67300;--ltx-fill-color:#E67300;" fill="#E67300" stroke="#E67300" transform="matrix(1.0 0.0 0.0 1.0 253.91 -68.1)"><foreignobject style="--ltx-fo-width:6.4em;--ltx-fo-height:0.66em;--ltx-fo-depth:0.22em;font-size:7.97pt;" height="9.69" overflow="visible" transform="matrix(1 0 0 -1 0 7.26)" width="70.65"><span class="ltx_foreignobject_container"><span class="ltx_foreignobject_content"><span id="S1.F1.pic1.19" class="ltx_text" style="font-size:70%;--ltx-fg-color:#E67300;">Yes (Bypass: <math id="S1.F1.pic1.m23" class="ltx_Math" alttext="g(x)=0\Rightarrow\mathbf{h}^{\prime}_{t}=\mathbf{h}_{t}" display="inline" intent=":literal"><semantics><mrow><mrow><mi style="--ltx-fg-color:#E67300;" mathcolor="#E67300">g</mi><mo>⁡</mo><mrow><mo style="--ltx-fg-color:#E67300;" mathcolor="#E67300" stretchy="false">(</mo><mi style="--ltx-fg-color:#E67300;" mathcolor="#E67300">x</mi><mo style="--ltx-fg-color:#E67300;" mathcolor="#E67300" stretchy="false">)</mo></mrow></mrow><mo style="--ltx-fg-color:#E67300;" mathcolor="#E67300">=</mo><mn style="--ltx-fg-color:#E67300;" mathcolor="#E67300">0</mn><mo style="--ltx-fg-color:#E67300;" mathcolor="#E67300" stretchy="false">⇒</mo><msubsup><mi style="--ltx-fg-color:#E67300;" mathcolor="#E67300">𝐡</mi><mi style="--ltx-fg-color:#E67300;" mathcolor="#E67300">t</mi><mo style="--ltx-fg-color:#E67300;" mathcolor="#E67300">′</mo></msubsup><mo style="--ltx-fg-color:#E67300;" mathcolor="#E67300">=</mo><msub><mi style="--ltx-fg-color:#E67300;" mathcolor="#E67300">𝐡</mi><mi style="--ltx-fg-color:#E67300;" mathcolor="#E67300">t</mi></msub></mrow><annotation encoding="application/x-tex">g(x)=0\Rightarrow\mathbf{h}^{\prime}_{t}=\mathbf{h}_{t}</annotation></semantics></math>)</span></span></span></foreignobject></g></g></g></svg>