<svg id="S5.F6.pic1" class="ltx_picture ltx_centering" height="122.6" overflow="visible" version="1.1" viewbox="0 0 329.81 122.6" width="329.81"><g style="--ltx-stroke-color:#000000;--ltx-fill-color:#000000;" fill="#000000" stroke="#000000" stroke-width="0.4pt" transform="translate(0,122.6) matrix(1 0 0 -1 0 0) translate(18.42,0) translate(0,21.8) matrix(1.0 0.0 0.0 1.0 -18.42 -21.8)"><g class="ltx_nestedsvg" transform="matrix(1 0 0 1 0 0) translate(61.44,0) translate(0,21.8)"><g style="--ltx-stroke-color:#BFBFBF;--ltx-fill-color:#BFBFBF;--ltx-fg-color:#BFBFBF;" color="#BFBFBF" fill="#BFBFBF" stroke="#BFBFBF" stroke-dasharray="3.0pt,3.0pt" stroke-dashoffset="0.0pt" stroke-width="0.4pt"><path style="fill:none" d="M -43.02 22.13 L 114.71 22.13 M -43.02 44.25 L 114.71 44.25 M -43.02 66.38 L 114.71 66.38" /></g><g style="--ltx-stroke-color:#808080;--ltx-fill-color:#808080;--ltx-fg-color:#808080;" color="#808080" fill="#808080" stroke="#808080" stroke-width="0.2pt"><path style="fill:none" d="M 0 0 L 0 5.91 M 71.7 0 L 71.7 5.91 M 0 75.23 L 0 69.33 M 71.7 75.23 L 71.7 69.33" /></g><g style="--ltx-stroke-color:#808080;--ltx-fill-color:#808080;--ltx-fg-color:#808080;" color="#808080" fill="#808080" stroke="#808080" stroke-width="0.2pt"><path style="fill:none" d="M -43.02 22.13 L -37.11 22.13 M -43.02 44.25 L -37.11 44.25 M -43.02 66.38 L -37.11 66.38 M 114.71 22.13 L 108.81 22.13 M 114.71 44.25 L 108.81 44.25 M 114.71 66.38 L 108.81 66.38" /></g><g style="--ltx-stroke-color:#000000;--ltx-fill-color:#000000;" fill="#000000" stroke="#000000" stroke-width="0.4pt"><path style="fill:none" d="M -43.02 0 L -43.02 75.23 L 114.71 75.23 L 114.71 0 L -43.02 0 Z" /><g style="--ltx-stroke-color:#000000;--ltx-fill-color:#000000;" fill="#000000" stroke="#000000" transform="matrix(1.0 0.0 0.0 1.0 -32.67 -14.5)"><foreignobject style="--ltx-fo-width:4.72em;--ltx-fo-height:0.69em;--ltx-fo-depth:0em;font-size:10pt;" height="9.61" overflow="visible" transform="matrix(1 0 0 -1 0 9.61)" width="65.34"><span class="ltx_foreignobject_container"><span class="ltx_foreignobject_content"><span id="S5.F6.pic1.1" class="ltx_text">Hi &amp; Hello</span></span></span></foreignobject></g><g style="--ltx-stroke-color:#000000;--ltx-fill-color:#000000;" fill="#000000" stroke="#000000" transform="matrix(1.0 0.0 0.0 1.0 40.18 -14.5)"><foreignobject style="--ltx-fo-width:4.56em;--ltx-fo-height:0.69em;--ltx-fo-depth:0.19em;font-size:10pt;" height="12.3" overflow="visible" transform="matrix(1 0 0 -1 0 9.61)" width="63.04"><span class="ltx_foreignobject_container"><span class="ltx_foreignobject_content"><span id="S5.F6.pic1.2" class="ltx_text">Hi &amp; High</span></span></span></foreignobject></g><g style="--ltx-stroke-color:#000000;--ltx-fill-color:#000000;" fill="#000000" stroke="#000000" transform="matrix(0.0 1.0 -1.0 0.0 -47.91 12.13)"><foreignobject style="--ltx-fo-width:1.44em;--ltx-fo-height:0.64em;--ltx-fo-depth:0em;font-size:10pt;" height="8.92" overflow="visible" transform="matrix(1 0 0 -1 0 8.92)" width="19.99"><span class="ltx_foreignobject_container"><span class="ltx_foreignobject_content"><math id="S5.F6.pic1.m1" class="ltx_Math" alttext="0.3" display="inline" intent=":literal"><semantics><mn>0.3</mn><annotation encoding="application/x-tex">0.3</annotation></semantics></math></span></span></foreignobject></g><g style="--ltx-stroke-color:#000000;--ltx-fill-color:#000000;" fill="#000000" stroke="#000000" transform="matrix(0.0 1.0 -1.0 0.0 -47.91 34.26)"><foreignobject style="--ltx-fo-width:1.44em;--ltx-fo-height:0.64em;--ltx-fo-depth:0em;font-size:10pt;" height="8.92" overflow="visible" transform="matrix(1 0 0 -1 0 8.92)" width="19.99"><span class="ltx_foreignobject_container"><span class="ltx_foreignobject_content"><math id="S5.F6.pic1.m2" class="ltx_Math" alttext="0.6" display="inline" intent=":literal"><semantics><mn>0.6</mn><annotation encoding="application/x-tex">0.6</annotation></semantics></math></span></span></foreignobject></g><g style="--ltx-stroke-color:#000000;--ltx-fill-color:#000000;" fill="#000000" stroke="#000000" transform="matrix(0.0 1.0 -1.0 0.0 -47.91 56.39)"><foreignobject style="--ltx-fo-width:1.44em;--ltx-fo-height:0.64em;--ltx-fo-depth:0em;font-size:10pt;" height="8.92" overflow="visible" transform="matrix(1 0 0 -1 0 8.92)" width="19.99"><span class="ltx_foreignobject_container"><span class="ltx_foreignobject_content"><math id="S5.F6.pic1.m3" class="ltx_Math" alttext="0.9" display="inline" intent=":literal"><semantics><mn>0.9</mn><annotation encoding="application/x-tex">0.9</annotation></semantics></math></span></span></foreignobject></g><clippath id="pgfcp10"><path d="M -43.02 0 L 114.71 0 L 114.71 75.23 L -43.02 75.23 Z" /></clippath><g clip-path="url(#pgfcp10)"><g style="--ltx-stroke-color:#FF0000;--ltx-fill-color:#FFB3B3;" fill="#FFB3B3" stroke="#FF0000"><path d="M -22.83 0 h 12.45 v 33.93 h -12.45 Z M 48.86 0 h 12.45 v 14.75 h -12.45 Z" /></g><g></g><g style="--ltx-stroke-color:#008080;--ltx-fill-color:#B3D9D9;" fill="#B3D9D9" stroke="#008080"><path d="M -6.23 0 h 12.45 v 25.82 h -12.45 Z M 65.47 0 h 12.45 v 14.01 h -12.45 Z" /></g><g></g><g style="--ltx-stroke-color:#0000FF;--ltx-fill-color:#B3B3FF;" fill="#B3B3FF" stroke="#0000FF"><path d="M 10.38 0 h 12.45 v 9.59 h -12.45 Z M 82.07 0 h 12.45 v 73.76 h -12.45 Z" /></g><g></g></g><g style="--ltx-stroke-color:#A6A6A6;--ltx-fill-color:#FFFFFF;" fill="#FFFFFF" stroke="#A6A6A6"><path d="M -58.51 77.77 h 326.61 v 22.75 h -326.61 Z" /></g><g style="--ltx-stroke-color:#A6A6A6;--ltx-fill-color:#FFFFFF;" fill="#FFFFFF" stroke="#A6A6A6" transform="matrix(1.0 0.0 0.0 1.0 -54.36 89.14)"><g class="ltx_tikzmatrix" transform="matrix(1 0 0 -1 0 17.22)"><g class="ltx_tikzmatrix_row" transform="matrix(1 0 0 1 0 8.61)"><g style="--ltx-stroke-color:#FF0000;--ltx-fill-color:#FFB3B3;" class="ltx_tikzmatrix_col ltx_nopad_l ltx_nopad_r" fill="#FFB3B3" stroke="#FF0000" transform="matrix(1 0 0 -1 0 0) translate(0.28,0)"><path d="M 0 -3.94 M 0 -3.94 L 0 3.94 L 23.62 3.94 L 23.62 -3.94 Z M 23.62 3.94" /></g><g style="--ltx-stroke-color:#000000;--ltx-fill-color:#000000;" class="ltx_tikzmatrix_col ltx_nopad_l ltx_nopad_r" fill="#000000" stroke="#000000" transform="matrix(1 0 0 -1 24.18 0) translate(-0.28,0) matrix(1.0 0.0 0.0 1.0 3.04 -3.69)"><foreignobject style="--ltx-fo-width:1.78em;--ltx-fo-height:0.68em;--ltx-fo-depth:0em;font-size:10pt;" height="9.46" overflow="visible" transform="matrix(1 0 0 -1 0 9.46)" width="24.63"><span class="ltx_foreignobject_container"><span class="ltx_foreignobject_content">
<div id="S5.F6.pic1.3" class="ltx_inline-block ltx_transformed_outer" style="width:17.8pt;height:6.8pt;vertical-align:-0.0pt;"><span class="ltx_transformed_inner" style="transform:translate(0.0pt,0.0pt) scale(1.0,1.0) ;">
<p id="S5.F6.pic1.3.1" class="ltx_p">S2T</p>
</span></div></span></span></foreignobject></g><g style="--ltx-stroke-color:#008080;--ltx-fill-color:#B3D9D9;" class="ltx_tikzmatrix_col ltx_nopad_l ltx_nopad_r" fill="#B3D9D9" stroke="#008080" transform="matrix(1 0 0 -1 72.27 0) translate(0.28,0)"><path d="M 0 -3.94 M 0 -3.94 L 0 3.94 L 23.62 3.94 L 23.62 -3.94 Z M 23.62 3.94" /></g><g style="--ltx-stroke-color:#000000;--ltx-fill-color:#000000;" class="ltx_tikzmatrix_col ltx_nopad_l ltx_nopad_r" fill="#000000" stroke="#000000" transform="matrix(1 0 0 -1 96.44 0) translate(-0.28,0) matrix(1.0 0.0 0.0 1.0 3.04 -3.77)"><foreignobject style="--ltx-fo-width:5.17em;--ltx-fo-height:0.69em;--ltx-fo-depth:0.19em;font-size:10pt;" height="12.3" overflow="visible" transform="matrix(1 0 0 -1 0 9.61)" width="71.54"><span class="ltx_foreignobject_container"><span class="ltx_foreignobject_content">
<div id="S5.F6.pic1.4" class="ltx_inline-block ltx_transformed_outer" style="width:51.7pt;height:8.800000000000001pt;vertical-align:-1.9pt;"><span class="ltx_transformed_inner" style="transform:translate(0.0pt,0.0pt) scale(1.0,1.0) ;">
<p id="S5.F6.pic1.4.1" class="ltx_p">Interleaving</p>
</span></div></span></span></foreignobject></g><g style="--ltx-stroke-color:#0000FF;--ltx-fill-color:#B3B3FF;" class="ltx_tikzmatrix_col ltx_nopad_l ltx_nopad_r" fill="#B3B3FF" stroke="#0000FF" transform="matrix(1 0 0 -1 191.47 0) translate(0.28,0)"><path d="M 0 -3.94 M 0 -3.94 L 0 3.94 L 23.62 3.94 L 23.62 -3.94 Z M 23.62 3.94" /></g><g style="--ltx-stroke-color:#000000;--ltx-fill-color:#000000;" class="ltx_tikzmatrix_col ltx_nopad_l ltx_nopad_r" fill="#000000" stroke="#000000" transform="matrix(1 0 0 -1 215.64 0) translate(-0.28,0) matrix(1.0 0.0 0.0 1.0 3.04 -3.77)"><foreignobject style="--ltx-fo-width:5.72em;--ltx-fo-height:0.69em;--ltx-fo-depth:0.19em;font-size:10pt;" height="12.3" overflow="visible" transform="matrix(1 0 0 -1 0 9.61)" width="79.15"><span class="ltx_foreignobject_container"><span class="ltx_foreignobject_content">
<div id="S5.F6.pic1.5" class="ltx_inline-block ltx_transformed_outer" style="width:57.2pt;height:8.800000000000001pt;vertical-align:-1.9pt;"><span class="ltx_transformed_inner" style="transform:translate(0.0pt,0.0pt) scale(1.0,1.0) ;">
<p id="S5.F6.pic1.5.1" class="ltx_p">Speech token</p>
</span></div></span></span></foreignobject></g></g></g></g></g></g></g></svg>